<?xml version="1.0" encoding="UTF-8"?>
<svg id="Layer_2" data-name="Layer 2" xmlns="http://www.w3.org/2000/svg" viewBox="0 0 360.36 163.52">
  <defs>
    <style>
      .cls-1 {
        fill-rule: evenodd;
      }

      .cls-1, .cls-2 {
        fill: #4974a5;
        stroke-width: 0px;
      }
    </style>
  </defs>
  <g id="Layer_1-2" data-name="Layer 1">
    <path class="cls-2" d="M9.13,5.46c0,.79-.13,1.52-.38,2.17-.25.64-.6,1.19-1.06,1.65s-1.01.81-1.65,1.06c-.64.25-1.34.38-2.1.38H0V.21h3.94c.76,0,1.46.13,2.1.38.64.25,1.19.6,1.65,1.06s.81,1.02,1.06,1.67c.25.64.38,1.35.38,2.15ZM7.67,5.46c0-.65-.09-1.23-.27-1.73-.18-.51-.43-.94-.75-1.29-.32-.34-.71-.61-1.17-.79-.46-.19-.97-.29-1.54-.29H1.44v8.21h2.5c.57,0,1.08-.09,1.54-.27.46-.19.84-.46,1.17-.81.32-.34.57-.78.75-1.29.18-.51.27-1.09.27-1.73Z"/>
    <path class="cls-2" d="M15.81,6.19c0-.3-.04-.58-.13-.83s-.21-.46-.38-.65c-.17-.19-.37-.34-.6-.44-.22-.09-.49-.15-.79-.15-.63,0-1.12.18-1.48.54-.36.36-.59.87-.69,1.52h4.06ZM16.88,9.67c-.17.2-.36.37-.58.52-.22.14-.47.26-.73.35-.25.08-.52.15-.79.19-.27.05-.54.08-.81.08-.52,0-.99-.08-1.42-.25-.43-.18-.81-.44-1.13-.77-.31-.33-.55-.74-.73-1.23-.18-.5-.27-1.07-.27-1.73,0-.51.07-.99.23-1.44.17-.46.4-.84.69-1.17.3-.33.67-.59,1.1-.77.43-.19.92-.29,1.46-.29.44,0,.85.08,1.23.23.38.14.7.35.98.65.28.28.49.63.65,1.04.17.41.25.87.25,1.4,0,.21-.03.35-.08.42-.04.07-.13.1-.25.1h-4.96c.01.47.07.89.19,1.23.13.35.28.64.48.88.21.22.45.4.73.52.29.11.61.17.98.17.32,0,.59-.03.83-.1.23-.08.44-.17.6-.25.18-.09.32-.18.44-.25.11-.08.21-.13.29-.13.11,0,.19.04.25.13l.38.48Z"/>
    <path class="cls-2" d="M22.91,4.5c-.06.11-.15.17-.27.17-.07,0-.16-.03-.25-.08-.08-.05-.2-.11-.33-.17-.14-.07-.3-.13-.48-.19-.18-.05-.41-.08-.67-.08-.22,0-.43.03-.6.08-.17.06-.31.14-.44.23-.13.1-.22.21-.29.33-.06.13-.08.27-.08.42,0,.2.05.35.15.48.11.13.26.24.44.33.18.1.39.18.63.25.23.07.47.15.71.23.23.08.46.18.69.27.23.1.44.22.63.38.19.14.34.31.44.52.11.21.17.47.17.77,0,.35-.06.67-.19.96-.11.28-.29.53-.54.75-.24.21-.53.38-.88.5-.35.13-.74.19-1.19.19-.53,0-1-.08-1.42-.25-.42-.18-.77-.4-1.06-.67l.29-.5c.04-.05.09-.09.15-.13.05-.04.13-.06.21-.06s.17.04.27.1c.09.07.21.15.35.23.14.08.3.16.5.23.21.07.46.1.77.1.25,0,.46-.03.65-.1.19-.07.35-.16.48-.27.14-.11.23-.23.29-.38.07-.15.1-.31.1-.48,0-.21-.06-.38-.17-.5-.11-.14-.26-.26-.44-.35-.18-.09-.39-.18-.63-.25-.24-.07-.48-.15-.73-.23-.24-.08-.47-.17-.71-.27-.22-.09-.43-.22-.6-.38-.18-.15-.33-.34-.44-.56-.11-.22-.17-.49-.17-.81,0-.28.05-.55.17-.81.13-.26.3-.49.52-.69.22-.19.5-.34.83-.46.33-.13.71-.19,1.13-.19.48,0,.92.08,1.31.23.39.16.72.36,1,.63l-.29.48Z"/>
    <path class="cls-2" d="M26.31,3.27v7.44h-1.31V3.27h1.31ZM26.58.94c0,.14-.03.27-.08.38-.04.1-.11.2-.21.29-.08.08-.18.16-.29.21-.11.04-.23.06-.35.06s-.24-.02-.35-.06c-.11-.05-.21-.13-.29-.21-.08-.09-.16-.19-.21-.29-.04-.11-.06-.23-.06-.38,0-.13.02-.24.06-.35.05-.11.13-.21.21-.29.08-.09.18-.17.29-.21.11-.05.23-.08.35-.08s.24.03.35.08c.11.04.21.11.29.21.09.08.17.18.21.29.05.11.08.23.08.35Z"/>
    <path class="cls-2" d="M31.04,7.08c.26,0,.49-.03.69-.1.21-.08.38-.19.5-.31.14-.14.24-.3.31-.48.07-.18.1-.38.1-.6,0-.46-.14-.82-.42-1.08-.27-.28-.66-.42-1.19-.42s-.93.14-1.21.42c-.28.27-.42.63-.42,1.08,0,.22.03.43.1.6.07.18.17.34.31.48.14.13.3.23.5.31.21.07.44.1.71.1ZM33.39,11.1c0-.18-.06-.33-.17-.44-.1-.11-.24-.19-.42-.25-.17-.07-.37-.11-.6-.15-.22-.03-.47-.05-.73-.06-.25-.01-.51-.03-.77-.04-.27-.01-.52-.04-.77-.08-.27.14-.49.31-.67.5-.17.18-.25.4-.25.67,0,.17.04.32.13.46.08.15.21.28.38.38.18.11.4.19.67.25.28.07.59.1.96.1.34,0,.66-.04.94-.1.28-.06.51-.15.71-.27.19-.11.34-.25.44-.42.11-.17.17-.35.17-.54ZM34.73,3.56v.5c0,.16-.1.26-.31.31l-.85.1c.17.32.25.68.25,1.06,0,.36-.07.7-.21,1-.14.29-.33.54-.58.75-.24.21-.53.37-.88.48-.33.11-.7.17-1.1.17-.35,0-.68-.04-.98-.13-.17.1-.29.2-.38.31-.08.11-.13.22-.13.33,0,.18.07.32.21.42.15.08.34.15.58.19.23.04.5.07.79.08.3,0,.61.02.94.04.32.02.63.05.92.1.3.06.57.15.81.27.23.13.42.3.56.52.15.21.23.48.23.81s-.08.63-.25.92c-.16.3-.39.57-.69.79-.29.23-.66.42-1.1.56-.43.14-.92.21-1.46.21s-1.02-.06-1.42-.17c-.41-.1-.74-.24-1.02-.42-.27-.18-.47-.39-.6-.63-.13-.24-.19-.49-.19-.75,0-.36.11-.67.33-.92.23-.26.55-.47.96-.63-.22-.09-.41-.22-.54-.38-.13-.17-.19-.39-.19-.67,0-.11.02-.22.06-.33.04-.13.1-.24.19-.35.08-.11.18-.21.29-.31.11-.11.25-.21.42-.29-.38-.19-.67-.46-.88-.79-.2-.34-.29-.75-.29-1.21,0-.36.07-.69.21-.98.14-.29.33-.54.58-.75s.54-.36.88-.48c.34-.13.73-.19,1.15-.19.32,0,.61.04.9.13.28.07.53.17.77.29h2.02Z"/>
    <path class="cls-2" d="M37.31,4.35c.15-.18.32-.34.5-.48.18-.15.38-.28.58-.38.21-.11.42-.19.65-.25.22-.05.46-.08.73-.08.42,0,.78.07,1.08.21.3.13.56.31.77.56s.36.55.48.9c.11.35.17.73.17,1.15v4.73h-1.31v-4.73c0-.57-.14-1.01-.4-1.31-.25-.3-.64-.46-1.17-.46-.39,0-.75.1-1.08.29-.33.18-.64.43-.92.73v5.48h-1.31V3.27h.77c.19,0,.31.09.35.27l.1.81Z"/>
    <path class="cls-2" d="M52.26,6.52v4.19h-1.42v-4.19L46.99.21h1.25c.13,0,.22.03.29.08.07.06.13.14.19.23l2.42,4.08c.08.18.16.35.23.5.07.14.13.29.19.44.05-.15.11-.3.19-.44.07-.15.15-.32.23-.5l2.4-4.08c.04-.08.1-.15.19-.21.08-.07.18-.1.29-.1h1.27l-3.85,6.31Z"/>
    <path class="cls-2" d="M60.28,3.17c.54,0,1.03.09,1.46.27.44.18.82.44,1.13.77.3.33.54.74.71,1.21.17.47.25,1,.25,1.58s-.08,1.11-.25,1.58c-.17.46-.41.85-.71,1.19-.31.33-.68.59-1.13.77-.43.18-.92.27-1.46.27s-1.04-.09-1.48-.27c-.43-.18-.81-.44-1.13-.77-.31-.33-.54-.73-.71-1.19-.16-.47-.23-1-.23-1.58s.07-1.11.23-1.58c.17-.47.4-.88.71-1.21.32-.33.69-.59,1.13-.77.44-.18.94-.27,1.48-.27ZM60.28,9.79c.73,0,1.28-.24,1.65-.73.36-.5.54-1.19.54-2.06s-.18-1.57-.54-2.06c-.36-.5-.91-.75-1.65-.75-.38,0-.7.06-.98.19-.28.13-.51.31-.69.56-.18.24-.32.53-.42.88-.08.35-.13.74-.13,1.19,0,.88.18,1.56.54,2.06.36.49.92.73,1.67.73Z"/>
    <path class="cls-2" d="M71.57,3.27v7.44h-.77c-.2,0-.31-.09-.35-.27l-.1-.79c-.33.35-.7.64-1.1.85-.39.22-.85.33-1.38.33-.41,0-.76-.07-1.06-.21-.31-.14-.57-.32-.79-.56-.21-.25-.37-.55-.48-.9-.1-.34-.15-.73-.15-1.15V3.27h1.31v4.75c0,.56.13.99.38,1.31.26.31.66.46,1.19.46.39,0,.75-.09,1.08-.27.33-.19.64-.45.92-.77V3.27h1.31Z"/>
    <path class="cls-2" d="M74.86,4.77c.23-.51.52-.91.85-1.19.34-.29.77-.44,1.27-.44.15,0,.3.02.44.06.15.03.28.08.4.15l-.1.98c-.03.13-.1.19-.21.19-.07,0-.18-.01-.31-.04-.13-.03-.27-.04-.44-.04-.24,0-.45.04-.63.1-.18.07-.35.18-.5.31-.14.13-.27.29-.4.48-.11.2-.21.43-.29.69v4.69h-1.31V3.27h.75c.14,0,.23.03.27.08.05.06.09.16.13.29l.08,1.13Z"/>
    <path class="cls-2" d="M93.95.21v10.5h-1.25V2.67c.01-.13.03-.25.04-.38l-3.6,6.58c-.11.21-.29.31-.52.31h-.21c-.22,0-.39-.1-.5-.31l-3.69-6.6c.03.25.04.49.04.71v7.73h-1.25V.21h1.06c.13,0,.22.02.29.04.07.02.13.08.19.19l3.65,6.48c.05.11.11.23.17.35.05.13.1.26.15.4.05-.14.11-.27.17-.4.05-.13.11-.25.17-.38l3.56-6.46c.07-.11.14-.17.21-.19.07-.03.17-.04.29-.04h1.04Z"/>
    <path class="cls-2" d="M100.35,7.35c-.6.03-1.11.08-1.54.17-.42.07-.77.17-1.04.29-.27.11-.46.25-.58.42-.11.17-.17.35-.17.56s.03.37.08.52c.07.14.16.26.27.35.11.08.24.15.4.19.15.04.31.06.48.06.22,0,.43-.02.63-.06.19-.05.38-.13.54-.21.17-.09.32-.2.48-.31.15-.13.3-.27.46-.44v-1.54ZM96.12,4.33c.42-.4.86-.7,1.33-.9.47-.19,1-.29,1.58-.29.42,0,.78.07,1.1.21.32.14.59.33.81.58.22.24.39.53.5.88.11.35.17.73.17,1.15v4.75h-.58c-.13,0-.22-.02-.29-.06-.07-.04-.13-.13-.17-.25l-.15-.71c-.2.18-.39.35-.56.5-.18.14-.38.26-.58.35-.21.08-.43.16-.67.21-.22.05-.48.08-.77.08s-.56-.04-.81-.13-.47-.2-.67-.35c-.18-.17-.33-.38-.44-.63-.11-.25-.17-.54-.17-.88,0-.29.07-.57.23-.83.17-.28.43-.52.79-.73.36-.22.83-.4,1.42-.52.58-.14,1.3-.21,2.15-.23v-.58c0-.58-.13-1.02-.38-1.31s-.62-.44-1.1-.44c-.32,0-.59.04-.81.13-.21.07-.4.16-.56.27-.16.1-.29.19-.42.27-.11.07-.22.1-.33.1-.08,0-.16-.02-.23-.06-.06-.04-.1-.09-.15-.17l-.25-.42Z"/>
    <path class="cls-2" d="M104.93,8.92c.23.32.49.55.77.69.29.13.61.19.96.19.69,0,1.23-.24,1.6-.73.38-.5.56-1.21.56-2.13,0-.47-.05-.88-.15-1.23-.08-.34-.21-.63-.38-.85-.16-.22-.35-.38-.58-.48-.24-.11-.5-.17-.79-.17-.43,0-.81.1-1.13.29-.32.2-.61.47-.88.83v3.58ZM104.84,4.44c.32-.39.68-.7,1.08-.94.42-.23.89-.35,1.42-.35.43,0,.82.08,1.17.25.34.17.64.41.88.73.25.32.44.72.56,1.19.14.47.21,1.02.21,1.63,0,.56-.08,1.07-.23,1.54-.14.47-.35.89-.63,1.23-.28.33-.62.6-1.02.81-.39.19-.83.29-1.33.29-.46,0-.85-.08-1.17-.23-.32-.15-.6-.36-.85-.65v3.29h-1.31V3.27h.77c.19,0,.31.09.35.27l.1.9Z"/>
    <path class="cls-2" d="M126.76,64.07l-.02,1.17h-6.48v-10.5h6.48v1.15h-5.04v3.5h4.08v1.1h-4.08v3.58h5.06Z"/>
    <path class="cls-2" d="M128.43,65.23v-7.44h.77c.19,0,.31.09.35.27l.08.77c.28-.33.58-.6.92-.81.34-.22.75-.33,1.21-.33.5,0,.9.14,1.21.42.3.28.53.66.67,1.13.11-.26.25-.49.42-.69.17-.19.35-.35.56-.48.22-.14.45-.23.69-.29.23-.05.47-.08.71-.08.39,0,.73.06,1.04.19.3.13.56.31.77.54.22.24.39.54.5.9.11.35.17.74.17,1.19v4.73h-1.31v-4.73c0-.58-.13-1.02-.38-1.31-.25-.3-.62-.46-1.1-.46-.21,0-.41.04-.6.13-.2.07-.37.18-.52.33-.14.14-.26.32-.35.54-.08.22-.13.48-.13.77v4.73h-1.31v-4.73c0-.59-.12-1.04-.35-1.33-.24-.29-.58-.44-1.04-.44-.32,0-.62.09-.9.27-.28.17-.53.4-.75.69v5.54h-1.31Z"/>
    <path class="cls-2" d="M144.5,61.88c-.6.03-1.11.08-1.54.17-.42.07-.77.17-1.04.29-.27.11-.46.25-.58.42-.11.17-.17.35-.17.56s.03.37.08.52c.07.14.16.26.27.35.11.08.24.15.4.19.15.04.31.06.48.06.22,0,.43-.02.63-.06.19-.05.38-.13.54-.21.17-.09.32-.2.48-.31.15-.13.3-.27.46-.44v-1.54ZM140.27,58.86c.42-.4.86-.7,1.33-.9.47-.19,1-.29,1.58-.29.42,0,.78.07,1.1.21.32.14.59.33.81.58.22.24.39.53.5.88.11.35.17.73.17,1.15v4.75h-.58c-.13,0-.22-.02-.29-.06-.07-.04-.13-.13-.17-.25l-.15-.71c-.2.18-.39.35-.56.5-.18.14-.38.26-.58.35-.21.08-.43.16-.67.21-.22.05-.48.08-.77.08s-.56-.04-.81-.13-.47-.2-.67-.35c-.18-.17-.33-.38-.44-.63-.11-.25-.17-.54-.17-.88,0-.29.07-.57.23-.83.17-.28.43-.52.79-.73.36-.22.83-.4,1.42-.52.58-.14,1.3-.21,2.15-.23v-.58c0-.58-.13-1.02-.38-1.31s-.62-.44-1.1-.44c-.32,0-.59.04-.81.13-.21.07-.4.16-.56.27-.16.1-.29.19-.42.27-.11.07-.22.1-.33.1-.08,0-.16-.02-.23-.06-.06-.04-.1-.09-.15-.17l-.25-.42Z"/>
    <path class="cls-2" d="M149.14,57.79v7.44h-1.31v-7.44h1.31ZM149.41,55.46c0,.14-.03.27-.08.38-.04.1-.11.2-.21.29-.08.08-.18.16-.29.21-.11.04-.23.06-.35.06s-.24-.02-.35-.06c-.11-.05-.21-.13-.29-.21-.08-.09-.16-.19-.21-.29-.04-.11-.06-.23-.06-.38,0-.13.02-.24.06-.35.05-.11.13-.21.21-.29.08-.09.18-.17.29-.21.11-.05.23-.08.35-.08s.24.03.35.08c.11.04.21.11.29.21.09.08.17.18.21.29.05.11.08.23.08.35Z"/>
    <path class="cls-2" d="M152.62,54.42v10.81h-1.29v-10.81h1.29Z"/>
    <path class="cls-2" d="M162.75,61.04v4.19h-1.42v-4.19l-3.85-6.31h1.25c.13,0,.22.03.29.08.07.06.13.14.19.23l2.42,4.08c.08.18.16.35.23.5.07.14.13.29.19.44.05-.15.11-.3.19-.44.07-.15.15-.32.23-.5l2.4-4.08c.04-.08.1-.15.19-.21.08-.07.18-.1.29-.1h1.27l-3.85,6.31Z"/>
    <path class="cls-2" d="M170.77,57.69c.54,0,1.03.09,1.46.27.44.18.82.44,1.13.77.3.33.54.74.71,1.21.17.47.25,1,.25,1.58s-.08,1.11-.25,1.58c-.17.46-.41.85-.71,1.19-.31.33-.68.59-1.13.77-.43.18-.92.27-1.46.27s-1.04-.09-1.48-.27c-.43-.18-.81-.44-1.13-.77-.31-.33-.54-.73-.71-1.19-.16-.47-.23-1-.23-1.58s.07-1.11.23-1.58c.17-.47.4-.88.71-1.21.32-.33.69-.59,1.13-.77.44-.18.94-.27,1.48-.27ZM170.77,64.32c.73,0,1.28-.24,1.65-.73.36-.5.54-1.19.54-2.06s-.18-1.57-.54-2.06c-.36-.5-.91-.75-1.65-.75-.38,0-.7.06-.98.19-.28.13-.51.31-.69.56-.18.24-.32.53-.42.88-.08.35-.13.74-.13,1.19,0,.88.18,1.56.54,2.06.36.49.92.73,1.67.73Z"/>
    <path class="cls-2" d="M182.05,57.79v7.44h-.77c-.2,0-.31-.09-.35-.27l-.1-.79c-.33.35-.7.64-1.1.85-.39.22-.85.33-1.38.33-.41,0-.76-.07-1.06-.21-.31-.14-.57-.32-.79-.56-.21-.25-.37-.55-.48-.9-.1-.34-.15-.73-.15-1.15v-4.75h1.31v4.75c0,.56.13.99.38,1.31.26.31.66.46,1.19.46.39,0,.75-.09,1.08-.27.33-.19.64-.45.92-.77v-5.48h1.31Z"/>
    <path class="cls-2" d="M185.35,59.29c.23-.51.52-.91.85-1.19.34-.29.77-.44,1.27-.44.15,0,.3.02.44.06.15.03.28.08.4.15l-.1.98c-.03.13-.1.19-.21.19-.07,0-.18-.01-.31-.04-.13-.03-.27-.04-.44-.04-.24,0-.45.04-.63.1-.18.07-.35.18-.5.31-.14.13-.27.29-.4.48-.11.2-.21.43-.29.69v4.69h-1.31v-7.44h.75c.14,0,.23.03.27.08.05.06.09.16.13.29l.08,1.13Z"/>
    <path class="cls-2" d="M193.77,59.02c-.06.11-.15.17-.27.17-.07,0-.16-.03-.25-.08-.08-.05-.2-.11-.33-.17-.14-.07-.3-.13-.48-.19-.18-.05-.41-.08-.67-.08-.22,0-.43.03-.6.08-.17.06-.31.14-.44.23-.13.1-.22.21-.29.33-.06.13-.08.27-.08.42,0,.2.05.35.15.48.11.13.26.24.44.33.18.1.39.18.63.25.23.07.47.15.71.23.23.08.46.18.69.27.23.1.44.22.63.38.19.14.34.31.44.52.11.21.17.47.17.77,0,.35-.06.67-.19.96-.11.28-.29.53-.54.75-.24.21-.53.38-.88.5-.35.13-.74.19-1.19.19-.53,0-1-.08-1.42-.25-.42-.18-.77-.4-1.06-.67l.29-.5c.04-.05.09-.09.15-.13.05-.04.13-.06.21-.06s.17.04.27.1c.09.07.21.15.35.23.14.08.3.16.5.23.21.07.46.1.77.1.25,0,.46-.03.65-.1.19-.07.35-.16.48-.27.14-.11.23-.23.29-.38.07-.15.1-.31.1-.48,0-.21-.06-.38-.17-.5-.11-.14-.26-.26-.44-.35-.18-.09-.39-.18-.63-.25-.24-.07-.48-.15-.73-.23-.24-.08-.47-.17-.71-.27-.22-.09-.43-.22-.6-.38-.18-.15-.33-.34-.44-.56-.11-.22-.17-.49-.17-.81,0-.28.05-.55.17-.81.13-.26.3-.49.52-.69.22-.19.5-.34.83-.46.33-.13.71-.19,1.13-.19.48,0,.92.08,1.31.23.39.16.72.36,1,.63l-.29.48Z"/>
    <path class="cls-2" d="M200.76,60.71c0-.3-.04-.58-.13-.83s-.21-.46-.38-.65c-.17-.19-.37-.34-.6-.44-.22-.09-.49-.15-.79-.15-.63,0-1.12.18-1.48.54-.36.36-.59.87-.69,1.52h4.06ZM201.82,64.19c-.17.2-.36.37-.58.52-.22.14-.47.26-.73.35-.25.08-.52.15-.79.19-.27.05-.54.08-.81.08-.52,0-.99-.08-1.42-.25-.43-.18-.81-.44-1.13-.77-.31-.33-.55-.74-.73-1.23-.18-.5-.27-1.07-.27-1.73,0-.51.07-.99.23-1.44.17-.46.4-.84.69-1.17.3-.33.67-.59,1.1-.77.43-.19.92-.29,1.46-.29.44,0,.85.08,1.23.23.38.14.7.35.98.65.28.28.49.63.65,1.04.17.41.25.87.25,1.4,0,.21-.03.35-.08.42-.04.07-.13.1-.25.1h-4.96c.01.47.07.89.19,1.23.13.35.28.64.48.88.21.22.45.4.73.52.29.11.61.17.98.17.32,0,.59-.03.83-.1.23-.08.44-.17.6-.25.18-.09.32-.18.44-.25.11-.08.21-.13.29-.13.11,0,.19.04.25.13l.38.48Z"/>
    <path class="cls-2" d="M204.87,54.42v10.81h-1.29v-10.81h1.29Z"/>
    <path class="cls-2" d="M207.48,65.23v-6.31l-.83-.1c-.1-.01-.18-.05-.25-.1-.06-.05-.08-.13-.08-.23v-.54h1.17v-.71c0-.43.05-.8.17-1.13.13-.33.3-.61.52-.83.22-.23.48-.41.79-.52.32-.13.67-.19,1.06-.19.33,0,.64.05.92.15l-.02.67c-.02.11-.08.18-.21.19h-.46c-.24,0-.45.04-.63.1-.18.06-.34.16-.48.29-.13.13-.22.3-.29.52-.07.21-.1.47-.1.79v.67h2.15v.96h-2.1v6.33h-1.31Z"/>
    <path class="cls-2" d="M149.52,81.88c-.6.03-1.11.08-1.54.17-.42.07-.77.17-1.04.29-.27.11-.46.25-.58.42-.11.17-.17.35-.17.56s.03.37.08.52c.07.14.16.26.27.35.11.08.24.15.4.19.15.04.31.06.48.06.22,0,.43-.02.63-.06.19-.05.38-.13.54-.21.17-.09.32-.2.48-.31.15-.13.3-.27.46-.44v-1.54ZM145.29,78.86c.42-.4.86-.7,1.33-.9.47-.19,1-.29,1.58-.29.42,0,.78.07,1.1.21.32.14.59.33.81.58.22.24.39.53.5.88.11.35.17.73.17,1.15v4.75h-.58c-.13,0-.22-.02-.29-.06-.07-.04-.13-.13-.17-.25l-.15-.71c-.2.18-.39.35-.56.5-.18.14-.38.26-.58.35-.21.08-.43.16-.67.21-.22.05-.48.08-.77.08s-.56-.04-.81-.13-.47-.2-.67-.35c-.18-.17-.33-.38-.44-.63-.11-.25-.17-.54-.17-.88,0-.29.07-.57.23-.83.17-.28.43-.52.79-.73.36-.22.83-.4,1.42-.52.58-.14,1.3-.21,2.15-.23v-.58c0-.58-.13-1.02-.38-1.31s-.62-.44-1.1-.44c-.32,0-.59.04-.81.13-.21.07-.4.16-.56.27-.16.1-.29.19-.42.27-.11.07-.22.1-.33.1-.08,0-.16-.02-.23-.06-.06-.04-.1-.09-.15-.17l-.25-.42Z"/>
    <path class="cls-2" d="M164.22,83.07c.07,0,.13.03.19.08l.56.63c-.42.5-.94.89-1.56,1.17-.61.28-1.35.42-2.21.42-.77,0-1.45-.13-2.06-.4-.61-.26-1.14-.63-1.58-1.1-.43-.47-.77-1.03-1.02-1.69-.24-.67-.35-1.4-.35-2.19s.13-1.51.38-2.17c.25-.67.59-1.23,1.04-1.71.46-.47,1-.84,1.63-1.1.64-.26,1.34-.4,2.1-.4s1.41.12,1.98.35c.57.24,1.07.56,1.52.98l-.48.65c-.03.06-.07.1-.13.13-.04.03-.1.04-.17.04-.1,0-.21-.04-.33-.13-.13-.09-.29-.2-.5-.31-.2-.13-.45-.23-.77-.33-.31-.09-.68-.15-1.13-.15-.54,0-1.04.1-1.5.29-.45.18-.83.45-1.17.81-.32.36-.57.8-.75,1.31-.18.5-.27,1.08-.27,1.73s.09,1.24.27,1.75c.19.52.45.95.77,1.31.33.35.72.62,1.17.81.44.18.92.27,1.44.27.3,0,.58-.01.83-.04.26-.04.5-.1.71-.19s.4-.18.58-.29c.19-.13.38-.27.56-.44.08-.07.17-.1.25-.1Z"/>
    <path class="cls-2" d="M169.45,77.69c.54,0,1.03.09,1.46.27.44.18.82.44,1.13.77.3.33.54.74.71,1.21.17.47.25,1,.25,1.58s-.08,1.11-.25,1.58c-.17.46-.41.85-.71,1.19-.31.33-.68.59-1.13.77-.43.18-.92.27-1.46.27s-1.04-.09-1.48-.27c-.43-.18-.81-.44-1.13-.77-.31-.33-.54-.73-.71-1.19-.16-.47-.23-1-.23-1.58s.07-1.11.23-1.58c.17-.47.4-.88.71-1.21.32-.33.69-.59,1.13-.77.44-.18.94-.27,1.48-.27ZM169.45,84.32c.73,0,1.28-.24,1.65-.73.36-.5.54-1.19.54-2.06s-.18-1.57-.54-2.06c-.36-.5-.91-.75-1.65-.75-.38,0-.7.06-.98.19-.28.13-.51.31-.69.56-.18.24-.32.53-.42.88-.08.35-.13.74-.13,1.19,0,.88.18,1.56.54,2.06.36.49.92.73,1.67.73Z"/>
    <path class="cls-2" d="M175.94,83.44c.23.32.49.55.77.69.29.13.61.19.96.19.69,0,1.23-.24,1.6-.73.38-.5.56-1.21.56-2.13,0-.47-.05-.88-.15-1.23-.08-.34-.21-.63-.38-.85-.16-.22-.35-.38-.58-.48-.24-.11-.5-.17-.79-.17-.43,0-.81.1-1.13.29-.32.2-.61.47-.88.83v3.58ZM175.86,78.96c.32-.39.68-.7,1.08-.94.42-.23.89-.35,1.42-.35.43,0,.82.08,1.17.25.34.17.64.41.88.73.25.32.44.72.56,1.19.14.47.21,1.02.21,1.63,0,.56-.08,1.07-.23,1.54-.14.47-.35.89-.63,1.23-.28.33-.62.6-1.02.81-.39.19-.83.29-1.33.29-.46,0-.85-.08-1.17-.23-.32-.15-.6-.36-.85-.65v3.29h-1.31v-9.96h.77c.19,0,.31.09.35.27l.1.9Z"/>
    <path class="cls-2" d="M189.24,77.79l-4.15,9.63c-.04.09-.1.17-.17.23-.06.07-.16.1-.29.1h-.98l1.38-2.96-3.08-7h1.15c.11,0,.19.04.25.1.07.06.11.11.15.17l1.98,4.69c.08.21.15.43.21.65.07-.23.14-.45.21-.65l1.94-4.69c.03-.07.07-.13.15-.19.07-.05.15-.08.25-.08h1.02Z"/>
    <path class="cls-2" d="M238.93,136.39c0,1.04.13,2.06.4,3.04.28.99.67,1.92,1.19,2.81.07.15.08.27.04.35-.03.08-.08.15-.17.19l-.58.35c-.36-.56-.68-1.11-.94-1.67-.25-.55-.46-1.11-.63-1.67-.16-.55-.27-1.11-.33-1.67-.07-.57-.1-1.15-.1-1.75s.03-1.18.1-1.75c.07-.57.18-1.13.33-1.69.17-.55.38-1.1.63-1.65.26-.55.57-1.11.94-1.69l.58.35c.08.06.14.13.17.21.04.07.03.18-.04.33-.52.89-.91,1.83-1.19,2.81-.27.99-.4,2.01-.4,3.06Z"/>
    <path class="cls-2" d="M256.01,130.5l-3.27,10.5h-1.29l-2.65-8.02c-.03-.07-.06-.15-.08-.23-.02-.09-.04-.19-.06-.29-.03.1-.06.2-.08.29-.02.08-.04.16-.06.23l-2.67,8.02h-1.29l-3.27-10.5h1.19c.13,0,.23.04.31.1.08.06.14.14.17.23l2.17,7.29c.03.14.05.29.08.44.04.16.07.31.1.48.04-.17.07-.32.1-.48.04-.15.08-.3.13-.44l2.48-7.29c.03-.08.08-.16.17-.23.08-.07.19-.1.31-.1h.42c.13,0,.22.04.29.1.08.06.15.14.19.23l2.46,7.29c.04.14.08.29.13.44.04.14.07.29.1.44.03-.15.05-.3.08-.44.03-.15.06-.3.1-.44l2.17-7.29c.03-.09.08-.17.17-.23.08-.07.19-.1.31-.1h1.1Z"/>
    <path class="cls-2" d="M258.58,134.56c.32-.33.67-.59,1.04-.79.39-.21.83-.31,1.33-.31.42,0,.78.07,1.08.21.3.13.56.31.77.56s.36.55.48.9c.11.35.17.73.17,1.15v4.73h-1.31v-4.73c0-.57-.14-1.01-.4-1.31-.25-.3-.64-.46-1.17-.46-.39,0-.75.1-1.08.29-.33.18-.64.43-.92.73v5.48h-1.31v-10.81h1.31v4.38Z"/>
    <path class="cls-2" d="M270.4,136.47c0-.3-.04-.58-.13-.83s-.21-.46-.38-.65c-.17-.19-.37-.34-.6-.44-.22-.09-.49-.15-.79-.15-.63,0-1.12.18-1.48.54-.36.36-.59.87-.69,1.52h4.06ZM271.46,139.95c-.17.2-.36.37-.58.52-.22.14-.47.26-.73.35-.25.08-.52.15-.79.19-.27.05-.54.08-.81.08-.52,0-.99-.08-1.42-.25-.43-.18-.81-.44-1.13-.77-.31-.33-.55-.74-.73-1.23-.18-.5-.27-1.07-.27-1.73,0-.51.07-.99.23-1.44.17-.46.4-.84.69-1.17.3-.33.67-.59,1.1-.77.43-.19.92-.29,1.46-.29.44,0,.85.08,1.23.23.38.14.7.35.98.65.28.28.49.63.65,1.04.17.41.25.87.25,1.4,0,.21-.03.35-.08.42-.04.07-.13.1-.25.1h-4.96c.01.47.07.89.19,1.23.13.35.28.64.48.88.21.22.45.4.73.52.29.11.61.17.98.17.32,0,.59-.03.83-.1.23-.08.44-.17.6-.25.18-.09.32-.18.44-.25.11-.08.21-.13.29-.13.11,0,.19.04.25.13l.38.48Z"/>
    <path class="cls-2" d="M274.41,134.64c.15-.18.32-.34.5-.48.18-.15.38-.28.58-.38.21-.11.42-.19.65-.25.22-.05.46-.08.73-.08.42,0,.78.07,1.08.21.3.13.56.31.77.56s.36.55.48.9c.11.35.17.73.17,1.15v4.73h-1.31v-4.73c0-.57-.14-1.01-.4-1.31-.25-.3-.64-.46-1.17-.46-.39,0-.75.1-1.08.29-.33.18-.64.43-.92.73v5.48h-1.31v-7.44h.77c.19,0,.31.09.35.27l.1.81Z"/>
    <path class="cls-2" d="M289.36,136.81v4.19h-1.42v-4.19l-3.85-6.31h1.25c.13,0,.22.03.29.08.07.06.13.14.19.23l2.42,4.08c.08.18.16.35.23.5.07.14.13.29.19.44.05-.15.11-.3.19-.44.07-.15.15-.32.23-.5l2.4-4.08c.04-.08.1-.15.19-.21.08-.07.18-.1.29-.1h1.27l-3.85,6.31Z"/>
    <path class="cls-2" d="M297.38,133.45c.54,0,1.03.09,1.46.27.44.18.82.44,1.13.77.3.33.54.74.71,1.21.17.47.25,1,.25,1.58s-.08,1.11-.25,1.58c-.17.46-.41.85-.71,1.19-.31.33-.68.59-1.13.77-.43.18-.92.27-1.46.27s-1.04-.09-1.48-.27c-.43-.18-.81-.44-1.13-.77-.31-.33-.54-.73-.71-1.19-.16-.47-.23-1-.23-1.58s.07-1.11.23-1.58c.17-.47.4-.88.71-1.21.32-.33.69-.59,1.13-.77.44-.18.94-.27,1.48-.27ZM297.38,140.08c.73,0,1.28-.24,1.65-.73.36-.5.54-1.19.54-2.06s-.18-1.57-.54-2.06c-.36-.5-.91-.75-1.65-.75-.38,0-.7.06-.98.19-.28.13-.51.31-.69.56-.18.24-.32.53-.42.88-.08.35-.13.74-.13,1.19,0,.88.18,1.56.54,2.06.36.49.92.73,1.67.73Z"/>
    <path class="cls-2" d="M308.67,133.56v7.44h-.77c-.2,0-.31-.09-.35-.27l-.1-.79c-.33.35-.7.64-1.1.85-.39.22-.85.33-1.38.33-.41,0-.76-.07-1.06-.21-.31-.14-.57-.32-.79-.56-.21-.25-.37-.55-.48-.9-.1-.34-.15-.73-.15-1.15v-4.75h1.31v4.75c0,.56.13.99.38,1.31.26.31.66.46,1.19.46.39,0,.75-.09,1.08-.27.33-.19.64-.45.92-.77v-5.48h1.31Z"/>
    <path class="cls-2" d="M320.76,139.81v1.19h-5.98v-10.5h1.42v9.31h4.56Z"/>
    <path class="cls-2" d="M325.14,133.45c.54,0,1.03.09,1.46.27.44.18.82.44,1.13.77.3.33.54.74.71,1.21.17.47.25,1,.25,1.58s-.08,1.11-.25,1.58c-.17.46-.41.85-.71,1.19-.31.33-.68.59-1.13.77-.43.18-.92.27-1.46.27s-1.04-.09-1.48-.27c-.43-.18-.81-.44-1.13-.77-.31-.33-.54-.73-.71-1.19-.16-.47-.23-1-.23-1.58s.07-1.11.23-1.58c.17-.47.4-.88.71-1.21.32-.33.69-.59,1.13-.77.44-.18.94-.27,1.48-.27ZM325.14,140.08c.73,0,1.28-.24,1.65-.73.36-.5.54-1.19.54-2.06s-.18-1.57-.54-2.06c-.36-.5-.91-.75-1.65-.75-.38,0-.7.06-.98.19-.28.13-.51.31-.69.56-.18.24-.32.53-.42.88-.08.35-.13.74-.13,1.19,0,.88.18,1.56.54,2.06.36.49.92.73,1.67.73Z"/>
    <path class="cls-2" d="M336.68,133.56l-3.02,7.44h-1.19l-3.02-7.44h1.06c.11,0,.2.03.27.08.07.06.11.12.13.19l1.9,4.79c.05.18.1.36.15.54.05.17.09.33.13.5l.13-.5c.04-.18.09-.36.17-.54l1.92-4.79c.03-.07.07-.13.15-.19.07-.05.15-.08.23-.08h1.02Z"/>
    <path class="cls-2" d="M342.85,136.47c0-.3-.04-.58-.13-.83s-.21-.46-.38-.65c-.17-.19-.37-.34-.6-.44-.22-.09-.49-.15-.79-.15-.63,0-1.12.18-1.48.54-.36.36-.59.87-.69,1.52h4.06ZM343.91,139.95c-.17.2-.36.37-.58.52-.22.14-.47.26-.73.35-.25.08-.52.15-.79.19-.27.05-.54.08-.81.08-.52,0-.99-.08-1.42-.25-.43-.18-.81-.44-1.13-.77-.31-.33-.55-.74-.73-1.23-.18-.5-.27-1.07-.27-1.73,0-.51.07-.99.23-1.44.17-.46.4-.84.69-1.17.3-.33.67-.59,1.1-.77.43-.19.92-.29,1.46-.29.44,0,.85.08,1.23.23.38.14.7.35.98.65.28.28.49.63.65,1.04.17.41.25.87.25,1.4,0,.21-.03.35-.08.42-.04.07-.13.1-.25.1h-4.96c.01.47.07.89.19,1.23.13.35.28.64.48.88.21.22.45.4.73.52.29.11.61.17.98.17.32,0,.59-.03.83-.1.23-.08.44-.17.6-.25.18-.09.32-.18.44-.25.11-.08.21-.13.29-.13.11,0,.19.04.25.13l.38.48Z"/>
    <path class="cls-2" d="M350.75,133.56v7.44h-1.31v-7.44h1.31ZM351.03,131.22c0,.14-.03.27-.08.38-.04.1-.11.2-.21.29-.08.08-.18.16-.29.21-.11.04-.23.06-.35.06s-.24-.02-.35-.06c-.11-.05-.21-.13-.29-.21-.08-.09-.16-.19-.21-.29-.04-.11-.06-.23-.06-.38,0-.13.02-.24.06-.35.05-.11.13-.21.21-.29.08-.09.18-.17.29-.21.11-.05.23-.08.35-.08s.24.03.35.08c.11.04.21.11.29.21.09.08.17.18.21.29.05.11.08.23.08.35Z"/>
    <path class="cls-2" d="M355.17,141.12c-.58,0-1.04-.17-1.35-.5-.32-.33-.48-.8-.48-1.42v-4.54h-.88c-.08,0-.16-.02-.21-.06-.06-.05-.08-.13-.08-.23v-.52l1.23-.15.29-2.29c.01-.08.04-.15.08-.19.05-.04.13-.06.21-.06h.67v2.54h2.15v.96h-2.15v4.46c0,.31.07.54.23.69.15.16.34.23.58.23.14,0,.26-.01.35-.04.09-.04.18-.08.25-.13.08-.04.15-.08.19-.13.05-.04.1-.06.15-.06.07,0,.13.04.19.13l.38.63c-.22.21-.49.38-.81.5-.32.13-.65.19-.98.19Z"/>
    <path class="cls-2" d="M359.23,136.39c0-1.05-.14-2.07-.42-3.06-.27-.98-.66-1.92-1.17-2.81-.03-.07-.05-.13-.06-.19-.02-.05-.02-.1,0-.15.01-.04.03-.07.06-.1.04-.04.08-.07.13-.1l.56-.35c.38.57.69,1.14.94,1.69.26.54.47,1.09.63,1.65.17.56.28,1.12.35,1.69.07.57.1,1.16.1,1.75s-.04,1.18-.1,1.75c-.07.56-.19,1.11-.35,1.67-.16.56-.36,1.11-.63,1.67-.25.55-.56,1.11-.94,1.67l-.56-.35s-.08-.06-.13-.08c-.03-.03-.05-.06-.06-.1-.02-.04-.02-.1,0-.17.01-.06.03-.12.06-.19.51-.89.9-1.82,1.17-2.81.28-.98.42-2,.42-3.04Z"/>
    <path class="cls-2" d="M257.16,155.75c0,.79-.13,1.52-.38,2.17-.24.66-.58,1.22-1.04,1.71-.46.47-1.01.84-1.65,1.1-.64.25-1.34.38-2.1.38s-1.49-.13-2.13-.38c-.64-.26-1.19-.63-1.65-1.1-.45-.48-.79-1.05-1.04-1.71-.25-.65-.38-1.38-.38-2.17s.13-1.51.38-2.17c.25-.65.59-1.21,1.04-1.69.46-.48,1.01-.86,1.65-1.13.64-.26,1.34-.4,2.13-.4s1.46.14,2.1.4c.64.27,1.19.64,1.65,1.13.46.47.8,1.04,1.04,1.69.25.66.38,1.38.38,2.17ZM255.7,155.75c0-.65-.09-1.23-.27-1.73-.17-.51-.41-.94-.73-1.29-.32-.36-.72-.64-1.19-.83-.46-.19-.97-.29-1.52-.29s-1.08.1-1.54.29c-.46.2-.85.47-1.19.83-.32.35-.57.78-.75,1.29-.17.5-.25,1.08-.25,1.73s.08,1.22.25,1.73c.18.52.43.95.75,1.31.33.35.73.62,1.19.81.46.18.97.27,1.54.27s1.06-.09,1.52-.27c.47-.19.86-.46,1.19-.81.32-.36.56-.8.73-1.31.18-.51.27-1.09.27-1.73Z"/>
    <path class="cls-2" d="M260.12,155.06c.23-.51.52-.91.85-1.19.34-.29.77-.44,1.27-.44.15,0,.3.02.44.06.15.03.28.08.4.15l-.1.98c-.03.13-.1.19-.21.19-.07,0-.18-.01-.31-.04-.13-.03-.27-.04-.44-.04-.24,0-.45.04-.63.1-.18.07-.35.18-.5.31-.14.13-.27.29-.4.48-.11.2-.21.43-.29.69v4.69h-1.31v-7.44h.75c.14,0,.23.03.27.08.05.06.09.16.13.29l.08,1.13Z"/>
    <path class="cls-2" d="M269.06,155.33c-.25-.32-.52-.54-.79-.67-.28-.14-.6-.21-.96-.21-.68,0-1.21.25-1.58.75-.38.49-.56,1.19-.56,2.1,0,.49.04.91.13,1.25.08.33.2.61.35.83.17.22.36.39.6.5.23.1.51.15.81.15.42,0,.78-.09,1.1-.29.33-.19.63-.47.9-.83v-3.58ZM270.37,150.18v10.81h-.79c-.18,0-.3-.09-.35-.27l-.1-.9c-.32.38-.69.68-1.1.92-.41.24-.87.35-1.4.35-.43,0-.82-.08-1.17-.25-.35-.17-.65-.4-.9-.71-.24-.32-.43-.71-.56-1.19-.13-.48-.19-1.03-.19-1.65,0-.54.07-1.05.21-1.52.15-.47.36-.88.65-1.23.28-.34.61-.61,1-.81.4-.21.85-.31,1.35-.31.46,0,.84.08,1.17.23.33.16.63.37.88.65v-4.13h1.31Z"/>
    <path class="cls-2" d="M277.39,156.47c0-.3-.04-.58-.13-.83s-.21-.46-.38-.65c-.17-.19-.37-.34-.6-.44-.22-.09-.49-.15-.79-.15-.63,0-1.12.18-1.48.54-.36.36-.59.87-.69,1.52h4.06ZM278.46,159.95c-.17.2-.36.37-.58.52-.22.14-.47.26-.73.35-.25.08-.52.15-.79.19-.27.05-.54.08-.81.08-.52,0-.99-.08-1.42-.25-.43-.18-.81-.44-1.13-.77-.31-.33-.55-.74-.73-1.23-.18-.5-.27-1.07-.27-1.73,0-.51.07-.99.23-1.44.17-.46.4-.84.69-1.17.3-.33.67-.59,1.1-.77.43-.19.92-.29,1.46-.29.44,0,.85.08,1.23.23.38.14.7.35.98.65.28.28.49.63.65,1.04.17.41.25.87.25,1.4,0,.21-.03.35-.08.42-.04.07-.13.1-.25.1h-4.96c.01.47.07.89.19,1.23.13.35.28.64.48.88.21.22.45.4.73.52.29.11.61.17.98.17.32,0,.59-.03.83-.1.23-.08.44-.17.6-.25.18-.09.32-.18.44-.25.11-.08.21-.13.29-.13.11,0,.19.04.25.13l.38.48Z"/>
    <path class="cls-2" d="M281.4,155.06c.23-.51.52-.91.85-1.19.34-.29.77-.44,1.27-.44.15,0,.3.02.44.06.15.03.28.08.4.15l-.1.98c-.03.13-.1.19-.21.19-.07,0-.18-.01-.31-.04-.13-.03-.27-.04-.44-.04-.24,0-.45.04-.63.1-.18.07-.35.18-.5.31-.14.13-.27.29-.4.48-.11.2-.21.43-.29.69v4.69h-1.31v-7.44h.75c.14,0,.23.03.27.08.05.06.09.16.13.29l.08,1.13Z"/>
    <path class="cls-2" d="M293.51,156.81v4.19h-1.42v-4.19l-3.85-6.31h1.25c.13,0,.22.03.29.08.07.06.13.14.19.23l2.42,4.08c.08.18.16.35.23.5.07.14.13.29.19.44.05-.15.11-.3.19-.44.07-.15.15-.32.23-.5l2.4-4.08c.04-.08.1-.15.19-.21.08-.07.18-.1.29-.1h1.27l-3.85,6.31Z"/>
    <path class="cls-2" d="M301.53,153.45c.54,0,1.03.09,1.46.27.44.18.82.44,1.13.77.3.33.54.74.71,1.21.17.47.25,1,.25,1.58s-.08,1.11-.25,1.58c-.17.46-.41.85-.71,1.19-.31.33-.68.59-1.13.77-.43.18-.92.27-1.46.27s-1.04-.09-1.48-.27c-.43-.18-.81-.44-1.13-.77-.31-.33-.54-.73-.71-1.19-.16-.47-.23-1-.23-1.58s.07-1.11.23-1.58c.17-.47.4-.88.71-1.21.32-.33.69-.59,1.13-.77.44-.18.94-.27,1.48-.27ZM301.53,160.08c.73,0,1.28-.24,1.65-.73.36-.5.54-1.19.54-2.06s-.18-1.57-.54-2.06c-.36-.5-.91-.75-1.65-.75-.38,0-.7.06-.98.19-.28.13-.51.31-.69.56-.18.24-.32.53-.42.88-.08.35-.13.74-.13,1.19,0,.88.18,1.56.54,2.06.36.49.92.73,1.67.73Z"/>
    <path class="cls-2" d="M312.82,153.56v7.44h-.77c-.2,0-.31-.09-.35-.27l-.1-.79c-.33.35-.7.64-1.1.85-.39.22-.85.33-1.38.33-.41,0-.76-.07-1.06-.21-.31-.14-.57-.32-.79-.56-.21-.25-.37-.55-.48-.9-.1-.34-.15-.73-.15-1.15v-4.75h1.31v4.75c0,.56.13.99.38,1.31.26.31.66.46,1.19.46.39,0,.75-.09,1.08-.27.33-.19.64-.45.92-.77v-5.48h1.31Z"/>
    <path class="cls-2" d="M316.12,155.06c.23-.51.52-.91.85-1.19.34-.29.77-.44,1.27-.44.15,0,.3.02.44.06.15.03.28.08.4.15l-.1.98c-.03.13-.1.19-.21.19-.07,0-.18-.01-.31-.04-.13-.03-.27-.04-.44-.04-.24,0-.45.04-.63.1-.18.07-.35.18-.5.31-.14.13-.27.29-.4.48-.11.2-.21.43-.29.69v4.69h-1.31v-7.44h.75c.14,0,.23.03.27.08.05.06.09.16.13.29l.08,1.13Z"/>
    <path class="cls-2" d="M335.2,150.5v10.5h-1.25v-8.04c.01-.13.03-.25.04-.38l-3.6,6.58c-.11.21-.29.31-.52.31h-.21c-.22,0-.39-.1-.5-.31l-3.69-6.6c.03.25.04.49.04.71v7.73h-1.25v-10.5h1.06c.13,0,.22.02.29.04.07.02.13.08.19.19l3.65,6.48c.05.11.11.23.17.35.05.13.1.26.15.4.05-.14.11-.27.17-.4.05-.13.11-.25.17-.38l3.56-6.46c.07-.11.14-.17.21-.19.07-.03.17-.04.29-.04h1.04Z"/>
    <path class="cls-2" d="M341.6,157.64c-.6.03-1.11.08-1.54.17-.42.07-.77.17-1.04.29-.27.11-.46.25-.58.42-.11.17-.17.35-.17.56s.03.37.08.52c.07.14.16.26.27.35.11.08.24.15.4.19.15.04.31.06.48.06.22,0,.43-.02.63-.06.19-.05.38-.13.54-.21.17-.09.32-.2.48-.31.15-.13.3-.27.46-.44v-1.54ZM337.37,154.62c.42-.4.86-.7,1.33-.9.47-.19,1-.29,1.58-.29.42,0,.78.07,1.1.21.32.14.59.33.81.58.22.24.39.53.5.88.11.35.17.73.17,1.15v4.75h-.58c-.13,0-.22-.02-.29-.06-.07-.04-.13-.13-.17-.25l-.15-.71c-.2.18-.39.35-.56.5-.18.14-.38.26-.58.35-.21.08-.43.16-.67.21-.22.05-.48.08-.77.08s-.56-.04-.81-.13-.47-.2-.67-.35c-.18-.17-.33-.38-.44-.63-.11-.25-.17-.54-.17-.88,0-.29.07-.57.23-.83.17-.28.43-.52.79-.73.36-.22.83-.4,1.42-.52.58-.14,1.3-.21,2.15-.23v-.58c0-.58-.13-1.02-.38-1.31s-.62-.44-1.1-.44c-.32,0-.59.04-.81.13-.21.07-.4.16-.56.27-.16.1-.29.19-.42.27-.11.07-.22.1-.33.1-.08,0-.16-.02-.23-.06-.06-.04-.1-.09-.15-.17l-.25-.42Z"/>
    <path class="cls-2" d="M346.18,159.2c.23.32.49.55.77.69.29.13.61.19.96.19.69,0,1.23-.24,1.6-.73.38-.5.56-1.21.56-2.13,0-.47-.05-.88-.15-1.23-.08-.34-.21-.63-.38-.85-.16-.22-.35-.38-.58-.48-.24-.11-.5-.17-.79-.17-.43,0-.81.1-1.13.29-.32.2-.61.47-.88.83v3.58ZM346.09,154.72c.32-.39.68-.7,1.08-.94.42-.23.89-.35,1.42-.35.43,0,.82.08,1.17.25.34.17.64.41.88.73.25.32.44.72.56,1.19.14.47.21,1.02.21,1.63,0,.56-.08,1.07-.23,1.54-.14.47-.35.89-.63,1.23-.28.33-.62.6-1.02.81-.39.19-.83.29-1.33.29-.46,0-.85-.08-1.17-.23-.32-.15-.6-.36-.85-.65v3.29h-1.31v-9.96h.77c.19,0,.31.09.35.27l.1.9Z"/>
    <path class="cls-1" d="M165.07,91.57s.06-.11.01-.15-.11-.05-.16-.02"/>
    <g>
      <path class="cls-1" d="M189.35,126.33c-1.32-.04-2.62-.22-3.89-.52-2.9-.7-5.64-2.03-8.02-3.72-3.17-2.25-6.13-5.22-8.34-8.64-2.2-3.41-3.66-7.27-3.85-11.35-.06-1.36,0-2.77.17-4.17.17-1.4.43-2.79.86-4.12l1.07-2.79.58-1.22-.02-.04h0s.1-.01.12-.06l-.21-.08c-.19.08-.36.22-.52.4-.21.23-.36.52-.5.73-.22.36-.44.71-.63,1.09-.29.56-.54,1.14-.77,1.71-.53,1.38-.92,2.83-1.13,4.3-.21,1.47-.25,2.95-.18,4.37.21,4.27,1.75,8.31,4.07,11.86,2.29,3.52,5.35,6.55,8.63,8.86,2.48,1.75,5.33,3.12,8.35,3.86,1.32.32,2.68.52,4.05.58-.83,7.94,3.66,14.36,10.49,17.96,3.47,1.83,7.55,2.99,11.81,3.11,4.06.12,8.25-.71,12.21-2.43.12-.05.19-.18.15-.3-.04-.12-.17-.18-.29-.13-3.93,1.34-7.99,1.67-11.88,1.36-4.01-.32-7.85-1.34-11.12-3.1-6.24-3.35-10.44-9.19-9.65-16.47,1.23-.06,2.47-.25,3.7-.58,1.7-.45,3.94-1.47,5.31-2.96,1.02-1.11,1.58-2.46,1.23-4.06-.35-1.59-1.44-2.56-2.77-2.93-1.3-.36-2.85-.11-4.15.73-1.22.79-2.2,1.91-2.95,3.18-.73,1.22-1.24,2.58-1.58,3.87-.15.58-.26,1.16-.36,1.72ZM191.06,126.29c1.11-.07,2.23-.26,3.34-.56,1.51-.41,3.51-1.3,4.71-2.64.73-.82,1.13-1.82.84-2.98-.28-1.1-1.05-1.75-1.98-1.98-.95-.23-2.05,0-2.98.63-.99.68-1.74,1.64-2.33,2.7-.61,1.1-1.03,2.3-1.31,3.45-.12.46-.21.92-.29,1.38Z"/>
      <path class="cls-1" d="M223.3,145.3l-.46.27c-1.45.95-2.91,1.89-4.3,2.94-.6.45-1.13.95-1.74,1.41-.12.06-.17.21-.11.32.06.11.2.15.32.09.72-.26,1.42-.49,2.11-.83,1.55-.77,2.96-1.79,4.46-2.64.09-.05,1.31-.75,1.78-1.07.65-.44.49-1.12.45-1.18-.02-.04-.35-.35-.99-.5-1.36-.33-4.75-1-5.15-1.1l-1.69-.38c-.78-.24-1.21.26-1.02.57.07.11.31.34.67.43l1.64.57c.31.1,2.48.68,4.04,1.1Z"/>
    </g>
    <g>
      <path class="cls-1" d="M72.53,53.11c-1.32-.04-2.62-.22-3.89-.52-2.9-.7-5.64-2.03-8.02-3.72-3.17-2.25-6.13-5.22-8.34-8.64-2.2-3.41-3.66-7.27-3.85-11.35-.06-1.36,0-2.77.17-4.17.17-1.4.43-2.79.86-4.12l1.07-2.79.58-1.22-.02-.04h0s.1-.01.12-.06l-.21-.08c-.19.08-.36.22-.52.4-.21.23-.36.52-.5.73-.22.36-.44.71-.63,1.09-.29.56-.54,1.14-.77,1.71-.53,1.38-.92,2.83-1.13,4.3-.21,1.47-.25,2.95-.18,4.37.21,4.27,1.75,8.31,4.07,11.86,2.29,3.52,5.35,6.55,8.63,8.86,2.48,1.75,5.33,3.12,8.35,3.86,1.32.32,2.68.52,4.05.58-.83,7.94,3.66,14.36,10.49,17.96,3.47,1.83,7.55,2.99,11.81,3.11,4.06.12,8.25-.71,12.21-2.43.12-.05.19-.18.15-.3-.04-.12-.17-.18-.29-.13-3.93,1.34-7.99,1.67-11.88,1.36-4.01-.32-7.85-1.34-11.12-3.1-6.24-3.35-10.44-9.19-9.65-16.47,1.23-.06,2.47-.25,3.7-.58,1.7-.45,3.94-1.47,5.31-2.96,1.02-1.11,1.58-2.46,1.23-4.06-.35-1.59-1.44-2.56-2.77-2.93-1.3-.36-2.85-.11-4.15.73-1.22.79-2.2,1.91-2.95,3.18-.73,1.22-1.24,2.58-1.58,3.87-.15.58-.26,1.16-.36,1.72ZM74.24,53.07c1.11-.07,2.23-.26,3.34-.56,1.51-.41,3.51-1.3,4.71-2.64.73-.82,1.13-1.82.84-2.98-.28-1.1-1.05-1.75-1.98-1.98-.95-.23-2.05,0-2.98.63-.99.68-1.74,1.64-2.33,2.7-.61,1.1-1.03,2.3-1.31,3.45-.12.46-.21.92-.29,1.38Z"/>
      <path class="cls-1" d="M106.48,72.08l-.46.27c-1.45.95-2.91,1.89-4.3,2.94-.6.45-1.13.95-1.74,1.41-.12.06-.17.21-.11.32.06.11.2.15.32.09.72-.26,1.42-.49,2.11-.83,1.55-.77,2.96-1.79,4.46-2.64.09-.05,1.31-.75,1.78-1.07.65-.44.49-1.12.45-1.18-.02-.04-.35-.35-.99-.5-1.36-.33-4.75-1-5.15-1.1l-1.69-.38c-.78-.24-1.21.26-1.02.57.07.11.31.34.67.43l1.64.57c.31.1,2.48.68,4.04,1.1Z"/>
    </g>
  </g>
</svg>