<?xml version="1.0" standalone="no"?>
<!DOCTYPE svg PUBLIC "-//W3C//DTD SVG 20010904//EN"
 "http://www.w3.org/TR/2001/REC-SVG-20010904/DTD/svg10.dtd">
<svg version="1.0" xmlns="http://www.w3.org/2000/svg"
 width="500.000000pt" height="500.000000pt" viewBox="0 0 500.000000 500.000000"
 preserveAspectRatio="xMidYMid meet">

<g transform="translate(0.000000,500.000000) scale(0.100000,-0.100000)"
fill="#000000" stroke="none">
<path d="M398 4978 c-8 -13 -52 -93 -98 -179 -63 -119 -88 -156 -99 -152 -9 3
-55 28 -104 56 -81 46 -109 54 -92 28 3 -6 49 -34 101 -62 52 -28 94 -53 94
-55 0 -2 -11 -21 -23 -42 -63 -100 -178 -325 -175 -342 2 -12 38 45 98 155 52
96 102 185 111 196 16 21 18 20 220 -116 112 -76 211 -144 219 -151 12 -12 10
-17 -12 -41 -15 -16 -48 -73 -75 -128 -27 -55 -94 -185 -148 -288 -98 -185
-100 -189 -128 -183 -67 13 -145 90 -250 243 -28 43 -37 51 -37 33 0 -12 34
-67 74 -123 56 -76 89 -111 130 -137 31 -19 63 -40 72 -45 14 -10 14 -17 -1
-76 -25 -98 -27 -99 -77 -48 -47 47 -181 159 -192 159 -3 0 -6 -33 -6 -72 l1
-73 62 -42 c34 -23 77 -55 95 -70 l33 -28 -26 -38 c-14 -21 -31 -35 -36 -31
-6 3 -20 28 -33 55 -12 27 -38 60 -56 74 -47 35 -53 12 -7 -26 20 -16 41 -46
48 -67 6 -20 19 -45 27 -55 15 -16 11 -22 -46 -80 l-62 -63 0 -61 c0 -61 0
-62 31 -68 56 -12 162 -67 247 -127 95 -67 106 -72 188 -87 57 -11 144 -49
144 -63 0 -14 -28 -23 -120 -38 -78 -13 -95 -19 -98 -34 -4 -17 1 -18 54 -13
34 3 83 19 121 37 36 18 67 29 70 26 3 -3 -29 -44 -72 -92 -69 -75 -90 -92
-172 -132 l-93 -46 -34 33 -35 34 -113 -12 c-62 -7 -114 -14 -117 -17 -14 -14
21 -16 116 -6 l108 11 29 -29 29 -28 -62 -74 c-39 -48 -61 -84 -61 -100 0 -21
-13 -33 -77 -69 -50 -28 -79 -51 -82 -64 -3 -19 -2 -19 15 -4 11 9 49 32 86
53 65 35 69 36 97 22 30 -16 71 -61 71 -79 0 -9 -135 -253 -231 -419 -45 -77
-57 -142 -13 -73 14 22 38 65 54 95 55 105 42 103 170 30 62 -36 115 -70 117
-77 3 -6 -11 -41 -31 -76 l-36 -64 -103 -26 c-56 -15 -123 -32 -148 -38 l-45
-10 0 -64 c0 -52 2 -62 13 -53 7 6 13 25 13 44 0 22 6 37 18 43 20 11 292 74
296 69 1 -2 15 -37 30 -79 34 -95 72 -129 211 -188 55 -24 101 -44 102 -45 8
-7 -25 -124 -49 -176 -87 -184 -251 -516 -260 -527 -8 -11 -17 -9 -45 8 -33
21 -51 21 -39 0 3 -5 35 -26 71 -46 60 -33 64 -38 54 -58 -35 -66 -181 -327
-184 -327 -2 0 -55 27 -119 61 -85 44 -116 57 -116 45 0 -9 33 -31 85 -57 47
-22 88 -45 91 -50 3 -5 -35 -9 -85 -9 l-91 0 0 -35 0 -35 183 0 182 1 -45 22
c-29 14 -46 30 -48 43 -2 12 34 88 82 175 47 85 88 159 90 164 3 9 136 -53
136 -63 0 -3 -35 -70 -79 -151 -111 -207 -104 -191 -89 -191 7 0 46 62 87 138
41 75 85 156 98 178 l24 42 159 -91 c88 -50 160 -96 160 -102 0 -6 -16 -42
-35 -81 -40 -80 -41 -84 -16 -84 13 0 27 20 51 73 18 39 34 74 36 76 2 2 67
-31 144 -73 78 -43 151 -76 162 -74 13 2 -31 30 -127 82 -80 43 -149 85 -152
93 -9 24 79 182 231 411 80 121 150 223 155 226 4 3 33 -12 62 -33 30 -21 86
-48 124 -61 39 -12 73 -26 78 -29 4 -4 -22 -92 -58 -195 -36 -103 -65 -189
-65 -191 0 -2 57 -34 126 -70 109 -58 129 -73 152 -111 15 -24 39 -49 55 -55
25 -10 28 -16 23 -41 -5 -28 -5 -28 42 -28 l47 1 111 211 c61 117 118 216 126
222 11 6 38 0 94 -23 114 -45 110 -42 89 -86 -9 -21 -40 -71 -69 -111 -90
-130 -136 -209 -123 -213 6 -2 16 4 22 14 5 9 51 79 100 154 50 76 95 146 101
156 10 19 12 19 39 1 26 -17 27 -21 23 -77 -2 -32 -1 -60 3 -61 5 -2 14 -45
20 -95 9 -65 17 -93 26 -93 9 0 12 8 8 23 -9 40 -35 250 -32 253 2 2 32 -1 68
-7 92 -16 209 -83 323 -185 66 -58 103 -84 120 -84 18 0 24 4 20 14 -6 15 8
40 139 273 62 110 85 143 101 143 26 0 166 -72 166 -85 0 -5 -9 -29 -20 -53
-20 -44 -57 -278 -46 -289 11 -11 15 2 26 78 10 73 56 235 71 253 28 32 304
-82 488 -201 204 -132 208 -134 269 -131 l56 3 39 79 c32 65 42 98 52 176 11
92 15 103 86 234 41 77 91 155 113 176 l39 39 27 -27 c15 -15 73 -51 129 -81
56 -30 109 -60 117 -66 13 -9 -5 -49 -125 -268 -78 -142 -141 -260 -141 -262
0 -3 6 -5 13 -5 6 0 54 78 105 173 51 94 129 237 173 317 44 79 79 153 77 164
-2 15 -12 3 -36 -42 -18 -34 -35 -62 -38 -62 -11 0 -253 142 -264 155 -10 13
-6 21 29 53 l41 37 11 130 c6 72 20 163 31 203 21 71 21 73 2 107 -21 39 -40
47 -29 13 13 -43 18 -91 8 -85 -6 4 -18 -2 -27 -12 -15 -16 -15 -22 -5 -39 11
-17 11 -43 0 -139 -19 -177 -22 -186 -84 -221 -78 -45 -109 -83 -197 -246 -70
-132 -80 -157 -85 -215 -4 -36 -11 -86 -17 -111 -13 -53 -69 -160 -83 -160 -5
0 -66 33 -134 73 l-125 72 -3 95 c-3 52 -7 126 -11 164 l-7 70 -65 47 c-36 26
-70 48 -75 48 -6 1 -24 -23 -42 -52 -17 -28 -54 -78 -81 -109 -27 -31 -52 -62
-54 -69 -3 -10 -19 -9 -69 5 -35 9 -70 21 -77 25 -23 14 3 78 77 193 66 100
101 161 101 172 0 2 -27 21 -60 41 -33 20 -62 40 -65 45 -7 11 23 72 127 260
197 356 195 352 214 442 l18 88 38 -6 c26 -5 49 0 80 14 24 12 71 29 106 38
59 17 66 17 120 0 31 -9 67 -22 80 -28 17 -9 34 -9 68 0 102 27 220 -1 291
-70 35 -34 47 -57 70 -131 25 -80 33 -93 74 -128 41 -34 53 -39 98 -39 50 0
51 1 51 30 0 34 -6 36 -38 14 -22 -15 -25 -14 -60 8 -20 14 -49 32 -64 42 -26
15 -28 21 -28 83 0 53 -5 74 -23 102 -13 20 -31 48 -40 62 -28 47 -95 71 -209
75 -72 2 -110 -1 -135 -11 -33 -14 -38 -13 -80 11 l-46 25 -154 -12 c-183 -13
-190 -11 -179 64 13 85 16 86 152 40 l119 -41 135 7 c199 10 593 -30 631 -65
18 -17 19 -16 19 18 0 31 -5 37 -37 52 -64 29 -76 41 -63 65 14 28 23 27 65
-10 l35 -31 0 29 c0 21 -8 33 -30 46 -16 10 -30 23 -30 29 0 6 14 36 31 66 16
29 29 63 27 75 -2 17 -13 4 -41 -50 -21 -40 -40 -73 -43 -73 -8 0 -229 171
-232 180 -1 4 13 34 31 66 19 33 51 89 71 127 20 37 41 67 45 67 5 0 43 -23
86 -51 42 -27 79 -48 82 -45 3 2 -25 26 -62 53 -37 26 -75 53 -83 59 -15 11
-15 15 2 47 15 27 28 36 62 44 34 8 48 7 64 -4 27 -19 28 6 1 29 -16 13 -27
15 -52 8 -18 -5 -34 -9 -35 -7 -1 1 22 45 52 97 29 52 53 106 54 119 l0 23
-18 -20 -17 -21 -145 60 c-80 34 -155 65 -168 70 -22 8 -22 9 -6 46 9 21 27
70 40 108 14 39 28 76 32 82 6 10 34 2 112 -28 58 -22 113 -43 124 -46 10 -3
24 -20 32 -37 13 -31 13 -30 14 29 0 38 -15 118 -40 218 -22 87 -40 160 -40
162 0 3 18 5 40 5 22 0 40 5 40 10 0 6 -18 10 -40 10 -37 0 -42 4 -73 53 -19
28 -53 78 -76 109 -23 31 -37 59 -32 62 5 3 57 14 115 23 75 12 106 21 106 31
0 8 -7 11 -17 8 -32 -8 -224 -38 -227 -35 -30 40 -214 373 -210 380 2 3 38 12
81 18 43 7 135 24 206 37 70 13 136 24 147 24 40 0 17 102 -68 300 -10 25 -22
61 -26 82 l-7 36 58 19 c35 12 59 26 61 36 3 14 -6 13 -62 -8 l-66 -25 -5 23
c-3 12 -11 50 -19 83 -7 34 -25 90 -39 125 -46 118 -48 109 31 109 86 0 162
10 162 21 0 5 -52 9 -115 9 l-115 0 0 45 c0 39 -3 45 -21 45 -19 0 -21 -4 -15
-44 l7 -44 -118 -6 c-65 -3 -164 -9 -220 -12 l-103 -5 -10 26 c-5 14 -10 40
-10 56 0 26 -3 29 -30 29 -16 0 -30 -2 -30 -4 0 -2 7 -37 15 -77 8 -41 19
-126 25 -189 6 -63 13 -135 16 -158 5 -42 5 -44 -18 -37 -22 7 -353 187 -470
256 -142 84 -200 122 -204 134 -3 7 2 27 11 44 l16 31 -55 0 c-34 0 -56 -5
-58 -12 -4 -10 -10 -10 -32 0 -15 6 -37 12 -49 12 -18 -1 -16 -5 15 -23 21
-12 38 -26 38 -31 0 -5 -46 -94 -102 -198 -77 -140 -107 -187 -118 -183 -46
17 -179 102 -176 112 3 6 49 72 104 145 114 154 129 178 110 177 -7 0 -60 -65
-118 -145 -58 -80 -112 -151 -120 -158 -13 -12 -39 0 -174 74 -88 48 -162 92
-164 99 -2 6 12 39 32 71 23 40 31 60 21 60 -15 0 -32 -26 -95 -145 -63 -119
-91 -165 -101 -165 -15 0 -59 74 -59 98 0 13 10 37 21 54 l22 30 -47 47 c-25
26 -46 54 -46 64 0 22 -16 22 -24 0 -5 -11 8 -31 40 -64 40 -41 45 -50 34 -64
-18 -22 -33 -19 -65 15 -16 17 -72 53 -123 81 -85 46 -99 50 -137 44 -24 -3
-49 -13 -56 -21 -9 -11 -15 -11 -25 -3 -8 6 -11 15 -8 20 3 5 -22 9 -55 9 -43
0 -61 -4 -61 -13 0 -67 -43 -524 -50 -531 -9 -9 -447 18 -458 28 -2 3 19 45
47 93 l52 88 112 40 112 40 -3 64 c-4 91 -70 216 -98 188 -4 -3 10 -36 30 -74
25 -46 36 -80 36 -109 0 -41 -2 -43 -42 -58 -24 -8 -70 -22 -102 -30 -33 -8
-62 -19 -65 -24 -3 -4 -27 -35 -53 -68 -25 -33 -53 -77 -62 -97 -17 -42 -21
-43 -91 -22 -27 9 -66 20 -86 25 -28 8 -40 18 -54 50 -18 41 -18 41 14 168 17
70 46 153 62 185 20 38 26 57 17 57 -22 0 -64 -90 -93 -195 -14 -55 -28 -108
-31 -117 -7 -22 -26 -23 -64 -3 -23 12 -30 23 -30 44 0 15 -7 42 -15 59 -14
28 -14 36 5 103 29 107 29 109 -28 109 l-48 0 -25 -102 -24 -103 -43 2 c-55 2
-196 49 -242 80 -19 12 -53 45 -75 72 -22 28 -49 50 -59 51 -18 0 -18 -2 5
-27 108 -125 127 -137 263 -177 49 -14 90 -27 92 -29 2 -2 -16 -61 -41 -133
-47 -137 -86 -217 -133 -274 l-30 -35 -221 148 c-121 82 -221 152 -221 156 0
4 43 87 95 184 52 96 95 178 95 181 0 14 -19 4 -32 -16z m1651 -23 c16 -32 16
-67 1 -300 -15 -223 -12 -215 -56 -215 l-35 0 6 58 c3 31 12 149 20 262 9 113
18 211 20 218 7 20 28 9 44 -23z m272 -31 c38 -20 88 -54 112 -74 36 -33 40
-39 28 -54 -8 -9 -16 -58 -21 -122 -4 -58 -12 -109 -16 -114 -5 -4 -34 -4 -64
0 -30 5 -85 11 -121 15 l-65 6 4 83 c4 80 3 86 -37 175 -22 50 -41 92 -41 94
0 2 12 2 28 0 15 -2 47 3 72 11 25 8 47 14 49 15 1 1 34 -15 72 -35z m1297
-57 c131 -77 190 -120 185 -136 -4 -14 -3 -14 5 -2 9 12 15 13 37 3 14 -6 28
-19 31 -27 4 -8 -26 -71 -66 -142 -40 -71 -95 -168 -123 -218 -92 -166 -88
-161 -154 -171 -84 -14 -117 -4 -175 52 -43 43 -88 117 -88 146 0 7 75 146
262 485 12 24 24 43 26 43 2 0 29 -15 60 -33z m1132 -39 c7 -29 23 -78 35
-108 20 -51 52 -197 44 -204 -9 -8 -148 -96 -152 -96 -2 0 -46 23 -97 50 -74
41 -108 53 -170 62 l-78 11 -7 61 c-3 34 -10 88 -15 121 -5 33 -11 79 -15 102
l-5 42 112 4 c62 1 163 4 225 5 l111 2 12 -52z m-2609 -193 c-6 -49 -13 -116
-17 -148 -5 -56 -7 -58 -32 -55 l-27 3 2 95 c1 52 7 147 14 210 l12 115 29
-65 c28 -63 29 -66 19 -155z m731 110 l166 -90 0 -36 c0 -20 8 -63 16 -97 16
-61 21 -122 10 -122 -4 0 -33 15 -65 32 -38 21 -59 39 -59 50 0 12 -8 18 -22
18 -12 0 -29 6 -37 14 -11 10 -55 17 -138 22 -89 5 -126 11 -135 22 -7 8 -12
37 -12 66 1 42 9 66 48 134 26 46 51 82 55 80 5 -2 83 -43 173 -93z m-349 -42
c41 -60 52 -94 48 -140 -1 -9 -19 -13 -56 -13 l-55 0 0 49 c0 49 11 171 15
171 2 0 23 -30 48 -67z m-1495 -56 c-46 -197 -73 -277 -115 -349 -25 -43 -49
-78 -52 -78 -4 0 -22 12 -40 28 l-33 27 69 127 c37 70 90 168 117 219 50 95
72 106 54 26z m-137 16 c-12 -20 -14 -14 -5 12 4 9 9 14 11 11 3 -2 0 -13 -6
-23z m3204 -72 c66 -36 122 -66 125 -67 3 0 13 -4 23 -7 9 -4 24 -9 32 -12 8
-2 15 -12 15 -22 0 -9 7 -45 16 -80 12 -48 13 -67 5 -77 -11 -13 -56 -26 -106
-31 -11 -1 -27 -5 -35 -8 -8 -3 -96 -19 -195 -36 -99 -17 -216 -38 -259 -46
-44 -8 -81 -13 -82 -12 -2 2 22 48 53 102 30 55 87 156 126 225 105 189 92
173 130 154 18 -9 86 -46 152 -83z m-2921 -4 c37 -54 40 -55 138 -87 l100 -31
-6 -60 c-6 -51 4 -177 19 -246 3 -13 25 -46 48 -75 51 -63 77 -123 77 -178 0
-46 -3 -47 -103 -30 -49 8 -70 18 -125 63 -98 80 -151 111 -255 147 -89 32
-177 88 -177 113 0 7 21 46 46 87 47 74 51 89 119 368 l5 22 39 -19 c22 -12
53 -42 75 -74z m2038 -31 l37 -21 -42 -77 c-39 -72 -45 -78 -73 -78 -30 0 -31
1 -38 56 -3 30 -4 60 0 65 3 6 -1 16 -10 22 -10 7 -19 34 -23 66 l-6 54 59
-33 c32 -18 76 -43 96 -54z m-794 -27 c135 -11 144 -13 152 -35 5 -13 23 -42
40 -66 30 -40 31 -45 24 -113 -3 -38 -12 -105 -19 -147 -12 -75 -12 -81 11
-137 22 -55 23 -61 9 -95 -8 -20 -16 -36 -18 -36 -1 0 -26 -9 -55 -19 l-52
-19 -128 40 c-70 22 -143 48 -162 58 -19 9 -48 20 -64 24 l-29 7 6 82 c4 45
13 165 22 267 8 102 15 191 15 198 0 11 13 13 53 8 28 -3 116 -10 195 -17z
m2016 -24 c50 -8 234 -100 223 -111 -6 -7 -240 -64 -259 -64 -12 0 -22 15 -32
51 -34 113 -32 143 7 135 12 -3 40 -8 61 -11z m-1576 -9 c15 -8 39 -27 53 -43
14 -16 53 -42 87 -58 70 -34 68 -16 21 -184 -16 -57 -29 -114 -29 -127 0 -13
-20 -51 -43 -83 -38 -50 -62 -100 -108 -218 -5 -13 -14 -21 -21 -18 -7 2 -53
16 -103 30 -49 15 -94 30 -98 34 -4 4 6 34 23 65 36 69 36 75 10 144 -19 51
-20 57 -5 154 23 155 21 197 -15 249 -16 24 -30 50 -30 57 0 18 222 17 258 -2z
m2005 -38 c34 -73 109 -275 110 -298 2 -22 -3 -25 -53 -32 -30 -4 -128 -22
-217 -39 -89 -17 -168 -29 -175 -26 -16 6 -128 207 -128 229 0 11 32 21 125
40 107 23 130 31 167 61 44 35 138 96 149 97 4 0 14 -15 22 -32z m-3114 -23
c96 -8 176 -17 179 -19 5 -6 -17 -348 -23 -354 -2 -2 -43 9 -92 26 -139 48
-173 55 -248 53 -89 -3 -106 9 -116 80 -9 66 -11 186 -3 217 6 21 10 22 68 17
33 -3 139 -12 235 -20z m240 -97 c-4 -40 -10 -124 -14 -185 -4 -62 -10 -113
-14 -113 -25 1 -28 20 -20 130 19 237 19 240 38 240 15 0 16 -8 10 -72z m128
58 c6 -5 -18 -327 -26 -361 -8 -32 -20 -34 -75 -13 l-28 11 6 76 c3 42 12 127
18 190 l12 113 45 -6 c24 -3 46 -8 48 -10z m996 -61 c18 -13 16 -18 -32 -107
-49 -89 -52 -88 -29 7 30 127 29 125 61 100z m213 -119 c70 -63 60 -75 -85
-100 -61 -11 -114 -17 -117 -13 -5 5 65 144 89 174 12 17 50 -3 113 -61z
m1033 52 c30 -47 121 -211 121 -217 0 -3 -57 -17 -126 -30 -108 -22 -127 -23
-135 -10 -7 12 -9 11 -9 -2 0 -13 -18 -19 -82 -29 -46 -6 -100 -16 -121 -21
-59 -15 -320 -60 -324 -56 -9 9 -50 253 -44 260 4 4 70 18 147 31 76 14 191
34 254 45 147 27 158 27 163 -1 4 -21 4 -20 6 3 1 24 7 28 49 37 73 15 86 14
101 -10z m-3484 -112 c53 -42 102 -71 145 -86 36 -13 68 -26 72 -29 13 -11
-39 -119 -157 -328 -65 -114 -120 -210 -122 -213 -2 -2 -19 4 -38 15 -119 70
-178 109 -201 133 -24 25 -25 31 -19 97 7 75 29 128 138 321 31 55 61 113 66
127 6 15 16 27 23 27 7 0 49 -29 93 -64z m2740 -43 c4 -27 16 -86 27 -132 10
-45 18 -85 16 -86 -10 -10 -213 -44 -220 -37 -5 5 -19 65 -32 133 -20 111 -21
124 -7 128 84 19 179 39 192 40 12 1 19 -11 24 -46z m-1758 -64 c120 -39 224
-72 231 -74 11 -4 16 -23 13 -55 -4 -33 -57 -183 -67 -187 -5 -2 -87 22 -181
54 -205 70 -247 100 -281 202 -12 34 -30 73 -41 87 -12 15 -18 30 -15 35 3 5
32 9 64 9 46 0 108 -16 277 -71z m1512 14 c16 -70 42 -216 39 -218 -14 -8
-209 -47 -214 -42 -3 3 -12 37 -20 74 -8 37 -19 94 -26 125 -6 32 -9 60 -6 64
7 7 163 41 195 43 17 1 23 -7 32 -46z m-231 -137 c14 -70 22 -129 19 -132 -11
-11 -177 -30 -186 -21 -22 22 105 293 133 284 6 -2 21 -61 34 -131z m-1858 4
c30 -26 89 -73 130 -105 63 -48 78 -65 92 -106 26 -76 19 -83 -60 -53 -68 25
-201 94 -323 166 l-67 39 23 42 c13 23 26 53 30 67 14 47 22 50 73 22 26 -14
72 -47 102 -72z m3327 -105 c99 -183 102 -190 81 -198 -21 -7 -196 -40 -553
-103 -77 -13 -184 -33 -237 -44 -104 -22 -138 -24 -138 -12 0 4 -14 86 -31
182 -18 96 -32 186 -33 199 -1 29 -16 25 269 76 110 20 211 39 224 42 23 6 24
4 18 -38 -3 -24 -8 -55 -12 -69 -3 -14 1 -9 9 10 8 19 15 50 15 68 1 17 4 32
9 33 4 0 59 11 122 24 63 12 124 22 134 21 15 -1 46 -49 123 -191z m-4114 93
c-14 -35 -27 -65 -30 -68 -10 -9 9 65 25 97 28 58 31 35 5 -29z m1687 15 c0
-5 -16 -56 -36 -115 -25 -75 -40 -108 -51 -108 -10 0 -14 6 -10 18 3 9 18 61
33 115 22 76 32 97 46 97 10 0 18 -3 18 -7z m235 -67 c55 -18 70 -27 69 -42
-3 -29 -55 -197 -65 -211 -14 -16 -129 26 -122 44 6 15 -23 18 -31 4 -6 -10
-94 13 -110 29 -9 9 19 120 51 201 l14 37 62 -19 c34 -11 94 -30 132 -43z
m1270 -106 c9 -52 25 -142 36 -199 10 -58 17 -106 15 -108 -5 -5 -211 -41
-214 -38 -13 12 -82 398 -73 408 10 10 204 45 212 38 4 -3 14 -49 24 -101z
m-1105 90 c0 -5 -4 -10 -9 -10 -6 0 -13 5 -16 10 -3 6 1 10 9 10 9 0 16 -4 16
-10z m-1376 -93 c83 -46 184 -96 224 -112 40 -16 71 -33 68 -39 -2 -6 -24 -60
-49 -121 -42 -103 -96 -227 -101 -232 -2 -2 -235 100 -426 186 -48 22 -84 44
-82 51 6 26 196 350 205 350 5 0 78 -37 161 -83z m344 44 c7 -68 -19 -110 -33
-53 -3 15 -21 42 -38 60 l-32 33 50 -3 c49 -3 50 -4 53 -37z m1007 15 c17 -12
18 -15 3 -37 -8 -13 -28 -63 -44 -111 -15 -49 -33 -88 -39 -88 -33 1 -33 17 0
118 49 151 44 144 80 118z m867 -32 c13 -44 70 -376 66 -380 -8 -7 -201 -35
-213 -30 -7 2 -15 28 -19 58 -4 29 -18 109 -32 178 -14 68 -24 133 -22 144 2
16 20 23 98 41 52 12 99 21 104 20 6 0 14 -15 18 -31z m-1582 -40 c91 -30 170
-57 177 -59 8 -3 3 -30 -19 -95 -35 -106 -13 -101 -198 -44 -63 20 -126 39
-139 43 -19 5 -31 24 -53 77 -44 109 -35 151 32 139 19 -3 109 -31 200 -61z
m813 44 l43 -11 -34 -116 c-19 -64 -36 -118 -38 -120 -2 -2 -29 4 -59 14 -46
14 -55 20 -50 36 3 10 8 29 11 42 13 48 66 167 75 167 5 0 28 -5 52 -12z m143
-49 c19 -16 18 -28 -12 -128 -33 -110 -41 -118 -94 -102 -22 6 -40 17 -40 23
0 6 16 62 35 124 l36 112 30 -8 c17 -5 37 -14 45 -21z m379 9 c2 -13 14 -77
25 -143 11 -66 25 -138 30 -160 17 -73 14 -82 -32 -93 -79 -20 -409 -74 -415
-69 -6 7 14 100 32 142 7 17 18 50 25 75 6 25 30 86 52 136 l40 91 101 18 c56
9 107 19 112 20 21 7 25 4 30 -17z m-2802 -53 c-9 -19 -21 -35 -25 -35 -5 0
-8 3 -6 8 22 45 33 62 40 62 4 0 0 -16 -9 -35z m127 -10 c0 -14 -4 -25 -10
-25 -11 0 -14 33 -3 43 11 11 13 8 13 -18z m1087 -35 c13 -34 4 -45 -20 -27
-11 8 -15 20 -11 35 8 30 17 28 31 -8z m499 6 c8 -22 -46 -176 -62 -176 -19 0
-18 9 12 106 25 81 39 100 50 70z m-1536 -17 c0 -6 -4 -7 -10 -4 -5 3 -10 11
-10 16 0 6 5 7 10 4 6 -3 10 -11 10 -16z m1845 -81 c7 -6 -23 -114 -57 -211
-25 -68 -17 -67 -158 -12 -84 33 -85 34 -85 69 0 19 -5 40 -11 46 -10 10 0 59
41 187 2 7 46 -3 134 -31 72 -23 133 -45 136 -48z m-1825 33 c0 -6 -4 -13 -10
-16 -5 -3 -10 1 -10 9 0 9 5 16 10 16 6 0 10 -4 10 -9z m1018 -6 c2 -2 -4 -18
-13 -35 -13 -25 -14 -34 -5 -40 7 -4 91 -34 186 -66 96 -32 174 -61 174 -64 0
-4 -20 -69 -45 -144 -25 -76 -45 -144 -45 -152 0 -20 -1 -19 -151 30 -159 52
-310 117 -305 131 3 6 20 46 39 90 19 44 52 122 73 173 36 89 39 93 63 87 14
-4 27 -8 29 -10z m3212 -79 c35 -52 66 -99 68 -105 2 -6 -7 -12 -20 -15 -252
-53 -398 -76 -480 -76 -78 0 -102 -4 -147 -25 -30 -14 -56 -24 -58 -22 -2 3
100 234 113 255 6 9 383 80 429 81 27 0 37 -9 95 -93z m-4160 64 c21 -11 41
-24 44 -29 7 -10 -3 -41 -13 -41 -10 0 -81 70 -81 81 0 13 6 12 50 -11z m-208
-17 c25 -22 23 -30 -9 -37 -16 -4 -36 -9 -46 -12 -16 -5 -16 -2 5 30 27 41 26
41 50 19z m1368 -36 c135 -46 155 -55 152 -72 -2 -11 -7 -23 -11 -27 -6 -7
-313 89 -340 107 -14 8 9 45 29 45 8 0 85 -24 170 -53z m657 25 c19 -12 -35
-182 -58 -182 -28 0 -29 10 -4 87 36 114 35 112 62 95z m101 -31 c24 -7 42
-18 42 -26 0 -15 -49 -175 -54 -175 -22 0 -106 34 -106 43 0 17 37 134 50 158
6 11 14 18 18 15 4 -2 26 -9 50 -15z m-2026 -56 c10 -18 10 -19 -13 -4 -13 9
-34 22 -46 30 -17 10 -19 16 -11 26 9 11 16 9 35 -9 14 -13 30 -32 35 -43z
m233 35 c23 -16 80 -46 126 -66 252 -109 425 -187 433 -195 6 -5 4 -20 -5 -38
l-14 -29 -90 41 c-327 146 -445 205 -484 240 -35 32 -40 40 -31 57 14 25 13
26 65 -10z m3448 -47 c-19 -43 -48 -106 -64 -141 -25 -54 -35 -66 -71 -82 -74
-32 -95 -34 -108 -11 -6 12 -8 21 -5 21 10 0 -17 31 -97 112 -43 43 -78 82
-78 86 0 5 46 17 103 26 56 9 154 28 217 41 63 13 120 24 127 24 7 1 -3 -31
-24 -76z m-3583 50 c14 -9 50 -38 80 -63 30 -26 80 -58 110 -72 30 -15 102
-49 160 -76 58 -27 151 -68 208 -92 108 -46 114 -53 88 -102 -8 -14 -19 -41
-26 -60 -6 -18 -29 -48 -50 -66 l-38 -33 -54 40 c-29 23 -89 59 -133 81 -81
40 -120 80 -156 163 -7 15 -33 40 -58 56 -25 15 -60 48 -76 72 -17 24 -36 50
-42 57 -12 13 -17 27 -14 45 0 4 -3 7 -7 7 -8 0 -32 43 -32 55 0 10 16 5 40
-12z m2063 -24 c21 -7 37 -20 37 -29 0 -22 -38 -152 -47 -160 -5 -4 -31 0 -60
9 l-52 16 31 93 c18 54 36 91 42 89 6 -2 28 -10 49 -18z m-2160 -52 c83 -56
147 -125 147 -160 0 -34 38 -83 100 -128 33 -24 60 -47 60 -51 0 -33 -157 8
-238 63 -24 16 -57 36 -75 46 -18 9 -36 21 -42 28 -5 6 -32 28 -59 50 -47 37
-48 39 -43 82 4 35 2 43 -10 39 -8 -4 -17 3 -23 17 l-9 22 0 -22 c-1 -16 -7
-23 -21 -23 -42 0 -15 54 45 89 34 19 82 5 168 -52z m1487 9 c0 -14 -5 -28
-11 -32 -17 -10 -32 12 -24 35 9 29 35 27 35 -3z m1742 -23 c13 -22 30 -146
33 -238 0 -10 -140 -43 -192 -44 -22 -1 -33 4 -37 17 -5 17 -32 173 -38 221
-3 24 1 26 102 47 58 12 107 22 110 23 3 0 13 -11 22 -26z m-1705 -15 c-3 -7
-5 -2 -5 12 0 14 2 19 5 13 2 -7 2 -19 0 -25z m1446 -30 c14 -58 39 -239 35
-243 -4 -4 -280 -65 -295 -65 -1 0 -5 20 -8 44 -8 48 14 106 40 106 15 0 20
12 9 23 -3 3 -7 31 -7 62 -2 49 0 56 19 61 22 6 170 31 190 33 7 1 14 -9 17
-21z m377 -58 c33 -39 60 -75 60 -79 0 -5 3 -17 6 -26 5 -11 2 -16 -7 -14 -8
1 -26 -1 -41 -4 -80 -20 -76 -21 -82 31 -17 142 -18 162 -8 162 6 0 38 -32 72
-70z m1000 65 c0 -3 10 -40 21 -83 43 -156 66 -262 56 -262 -5 0 -56 19 -114
42 -122 48 -118 34 -56 192 25 67 44 101 58 106 24 10 35 12 35 5z m-2890 -23
c0 -20 -39 -143 -49 -154 -3 -4 -12 -4 -18 0 -16 10 35 172 54 172 7 0 13 -8
13 -18z m2800 1 c0 -21 -75 -216 -85 -219 -11 -5 -250 87 -263 101 -4 3 0 18
9 33 16 29 23 31 219 70 115 23 120 24 120 15z m-2691 -19 c36 -10 51 -20 48
-28 -3 -8 -15 -44 -26 -81 -12 -37 -23 -70 -26 -75 -5 -8 -98 20 -111 33 -7 7
47 167 57 167 3 0 29 -7 58 -16z m295 -2 c10 -17 -7 -52 -25 -52 -24 0 -29 10
-18 38 8 22 33 30 43 14z m860 -8 c11 -29 6 -54 -24 -113 -25 -50 -28 -67 -23
-108 l5 -49 -67 -10 c-47 -7 -68 -7 -71 0 -6 19 -45 258 -42 261 4 4 169 33
194 34 12 0 25 -6 28 -15z m-2919 -79 c67 -80 117 -116 193 -139 12 -4 22 -12
22 -17 0 -6 -45 -9 -112 -7 -107 3 -112 4 -118 26 -3 12 -31 51 -63 87 l-58
65 21 35 c12 19 27 35 33 34 7 0 44 -38 82 -84z m2139 63 c53 -15 60 -21 52
-51 l-6 -25 -52 15 c-29 9 -54 17 -56 18 -5 4 10 55 15 55 3 0 24 -5 47 -12z
m-198 -24 l33 -14 -13 -42 c-36 -115 -42 -128 -56 -128 -27 0 -105 27 -105 36
0 5 11 46 25 92 25 82 25 82 54 76 16 -3 44 -12 62 -20z m729 -6 c9 -41 45
-226 45 -232 0 -15 -44 -1 -164 52 -71 31 -134 65 -140 74 -7 12 -6 25 5 50
15 31 20 33 120 54 134 28 128 28 134 2z m1425 15 c0 -6 -99 -205 -106 -212
-4 -5 -164 140 -164 149 0 7 105 57 135 63 33 7 135 7 135 0z m-1779 -44 c20
-10 14 -59 -7 -59 -21 0 -94 31 -94 40 0 32 14 41 49 35 19 -4 43 -11 52 -16z
m-288 5 c16 -6 13 -20 -28 -136 -18 -50 -21 -53 -43 -39 -11 6 -8 25 13 95 26
86 30 91 58 80z m100 -30 c26 -9 47 -19 47 -22 0 -8 -51 -165 -55 -170 -7 -8
-97 23 -102 34 -3 7 5 44 17 81 12 37 23 74 25 81 5 16 12 15 68 -4z m-2223
-46 l49 -53 1 -92 0 -93 -60 40 c-34 21 -92 51 -131 66 l-69 27 72 77 c40 43
77 78 81 79 5 0 30 -23 57 -51z m1251 -6 c63 -26 162 -63 221 -82 80 -26 108
-39 108 -52 0 -9 -4 -19 -8 -22 -5 -3 -79 17 -166 45 -86 27 -164 49 -171 49
-23 0 -125 41 -125 50 0 12 19 60 23 60 2 0 55 -22 118 -48z m2675 9 c21 -16
63 -51 93 -78 l53 -48 -23 -48 c-13 -26 -28 -47 -33 -47 -19 0 -191 153 -188
166 8 36 34 84 46 84 7 0 31 -13 52 -29z m390 -22 c71 -28 132 -54 136 -57 6
-7 -70 -223 -83 -237 -4 -3 -62 17 -130 45 -68 28 -136 56 -150 61 l-26 10 47
92 c56 112 70 137 74 137 2 0 61 -23 132 -51z m-1957 20 c24 -7 41 -18 41 -27
0 -8 -12 -50 -26 -92 l-27 -78 -45 13 c-25 8 -49 18 -53 22 -12 12 43 184 57
179 7 -3 30 -10 53 -17z m1452 -31 c-22 -53 -34 -57 -49 -15 -16 44 -16 45 11
50 58 11 58 11 38 -35z m-2122 13 c-2 -22 -16 -39 -26 -33 -17 11 -5 52 13 45
8 -3 14 -8 13 -12z m2076 -101 c55 -139 76 -178 119 -219 20 -19 36 -38 36
-42 0 -4 -21 -19 -47 -34 -27 -15 -74 -50 -105 -77 -47 -40 -62 -47 -83 -42
-18 4 -38 -2 -72 -23 -116 -71 -175 -105 -178 -101 -2 2 -10 59 -18 128 l-14
125 28 75 29 74 -15 79 c-23 121 -30 111 93 131 59 10 118 22 132 26 45 16 53
7 95 -100z m-2005 60 c-12 -23 -40 -16 -40 9 0 25 10 32 31 20 15 -8 17 -14 9
-29z m876 -43 c29 -15 93 -40 242 -97 45 -17 82 -37 82 -43 -1 -31 -90 -222
-102 -219 -7 2 -89 34 -183 71 -93 37 -191 76 -217 85 -27 10 -48 21 -48 24 0
4 16 59 37 124 l38 116 61 -23 c34 -13 74 -30 90 -38z m-1376 2 c219 -64 301
-93 297 -104 -3 -5 -19 -58 -37 -117 -22 -70 -38 -108 -47 -108 -14 0 -263 82
-313 103 -29 12 -25 11 -72 20 -42 9 -43 10 -27 38 8 16 7 25 -5 38 -19 21
-20 31 -4 68 6 15 12 34 14 42 8 42 28 72 43 66 9 -4 77 -24 151 -46z m566 45
c26 -7 21 -44 -5 -44 -26 0 -42 15 -35 33 7 19 9 19 40 11z m-162 -23 c9 -14
-4 -41 -20 -41 -15 0 -17 10 -8 34 7 18 20 21 28 7z m336 -46 c0 -24 -19 -27
-75 -10 -55 16 -60 20 -49 48 5 13 13 13 65 -5 33 -11 59 -26 59 -33z m1419
-38 c14 -82 14 -92 -4 -143 -26 -77 -32 -80 -104 -52 -34 13 -61 28 -61 33 0
16 87 225 101 241 7 8 22 14 33 12 18 -3 23 -15 35 -91z m-1679 42 c0 -12 -7
-19 -18 -19 -26 0 -33 10 -21 31 12 22 39 14 39 -12z m1565 9 c-4 -13 -18 -50
-32 -83 -13 -33 -30 -75 -35 -92 -6 -18 -14 -33 -18 -33 -6 0 -225 96 -241
105 -5 4 -3 19 4 38 13 31 16 32 143 58 71 14 142 27 157 28 25 1 28 -2 22
-21z m672 -195 l-30 -56 -52 54 c-56 59 -101 155 -90 196 5 22 11 19 104 -57
l99 -81 -31 -56z m-3497 141 c159 -75 167 -81 127 -100 -20 -9 -23 -8 -23 9 1
15 -27 34 -124 84 -139 72 -127 76 20 7z m-48 -20 l132 -66 -29 -24 c-27 -22
-39 -24 -138 -24 -90 0 -109 -3 -114 -16 -8 -20 -64 -13 -134 17 -69 30 -81
47 -77 110 l3 54 60 6 c153 15 155 14 297 -57z m412 -39 c35 -27 11 -24 -46 5
-54 26 -148 89 -148 97 0 6 171 -85 194 -102z m971 81 c0 -25 -16 -30 -39 -13
-24 17 -12 39 17 35 14 -2 22 -10 22 -22z m253 9 c2 -2 1 -12 -2 -23 -10 -29
-46 -17 -46 15 0 21 3 23 23 17 12 -3 24 -8 25 -9z m-424 -14 c9 -14 -4 -41
-20 -41 -8 0 -14 10 -14 25 0 25 23 35 34 16z m281 -12 c56 -21 60 -25 47 -47
-7 -9 -20 -9 -63 4 -65 19 -62 17 -54 43 8 25 2 25 70 0z m279 -19 c2 0 2 -9
-1 -20 -4 -13 -11 -19 -22 -16 -115 33 -106 28 -91 56 10 19 11 19 61 0 27
-11 51 -20 53 -20z m756 11 c0 -28 -13 -33 -50 -20 -32 12 -31 23 5 32 38 9
45 7 45 -12z m-1242 -19 c3 -16 -2 -22 -16 -22 -25 0 -31 7 -25 31 7 27 37 20
41 -9z m74 -2 c12 0 6 -42 -7 -47 -6 -2 -19 3 -30 10 -22 17 -13 52 11 43 9
-3 20 -6 26 -6z m247 -9 c19 -12 6 -41 -19 -41 -15 0 -20 7 -20 25 0 26 14 31
39 16z m250 -5 c48 -14 56 -23 42 -45 -8 -12 -16 -12 -55 -1 -50 14 -61 23
-52 45 7 18 9 18 65 1z m-669 -21 c0 -27 -71 -235 -80 -235 -5 0 -11 4 -14 9
-9 14 67 241 81 241 7 0 13 -7 13 -15z m302 -9 c29 -13 35 -20 31 -36 -4 -14
-11 -19 -21 -15 -8 3 -34 10 -58 16 -31 8 -44 17 -44 29 0 35 19 36 92 6z
m211 7 c30 -11 47 -23 47 -33 0 -27 -9 -29 -61 -12 -40 13 -49 20 -49 39 0 28
2 28 63 6z m2032 -39 c61 -25 129 -52 153 -61 23 -8 42 -16 42 -18 0 -9 -82
-221 -89 -228 -4 -4 -32 3 -62 16 -30 14 -84 37 -121 53 -55 23 -69 34 -82 63
-8 20 -20 43 -27 51 -8 12 -2 32 31 93 23 42 42 77 43 77 1 0 52 -21 112 -46z
m-2471 27 c6 -10 -64 -241 -73 -241 -3 0 -13 4 -21 10 -12 7 -8 26 25 124 35
106 53 134 69 107z m-724 -21 c0 -5 -5 -10 -11 -10 -5 0 -7 5 -4 10 3 6 8 10
11 10 2 0 4 -4 4 -10z m807 -4 c2 -2 -67 -227 -73 -237 -7 -12 -17 -11 -38 4
-16 12 -15 18 13 102 48 148 48 147 74 139 12 -3 23 -7 24 -8z m1341 -40 c50
-22 92 -45 92 -49 0 -8 -36 -96 -75 -184 l-14 -32 -88 35 c-48 20 -100 40
-114 45 l-26 10 45 115 c53 131 34 125 180 60z m-1098 19 c0 -18 -5 -25 -19
-25 -24 0 -33 13 -25 34 10 27 44 20 44 -9z m273 6 c29 -11 32 -18 18 -39 -6
-11 -17 -11 -55 -1 -51 13 -61 22 -52 46 7 16 35 15 89 -6z m-1528 -41 c33
-22 65 -40 72 -40 7 0 13 -4 13 -9 0 -5 14 -14 31 -21 24 -10 30 -18 25 -34
-9 -37 -85 -259 -90 -264 -3 -3 -11 0 -18 6 -7 6 -40 21 -73 33 -45 17 -79 40
-135 94 -41 39 -94 86 -118 104 -24 19 -40 36 -37 40 12 13 241 129 255 130 8
0 42 -17 75 -39z m1118 24 c30 -10 47 -22 47 -32 0 -14 -59 -210 -67 -221 -6
-8 -115 23 -119 34 -3 7 4 36 15 66 11 30 27 80 36 112 9 31 22 57 29 57 7 0
33 -7 59 -16z m230 -1 c32 -12 46 -22 42 -31 -3 -7 -5 -17 -5 -22 0 -9 -88 17
-103 30 -8 7 1 40 12 40 3 0 27 -8 54 -17z m454 -90 c36 -12 41 -18 33 -33 -9
-16 -16 -15 -102 17 -103 39 -113 45 -105 67 5 13 15 11 69 -10 35 -14 82 -32
105 -41z m-2103 27 c-21 -16 -47 -30 -57 -30 -17 0 -107 47 -107 56 0 2 46 4
102 4 l102 0 -40 -30z m1536 13 c0 -9 -17 -65 -37 -125 -35 -103 -55 -130 -69
-93 -5 12 47 198 63 228 8 14 43 7 43 -10z m252 5 c31 -9 38 -16 36 -32 -4
-24 -28 -25 -83 -2 -25 11 -33 19 -29 30 7 19 24 20 76 4z m-1147 -8 c8 -13
-5 -13 -25 0 -13 8 -13 10 2 10 9 0 20 -4 23 -10z m105 -33 c30 -11 56 -21 56
-21 1 -1 5 -11 9 -24 6 -22 6 -22 -52 7 -32 16 -68 32 -80 36 -13 3 -23 13
-23 22 0 11 5 13 18 8 9 -4 42 -17 72 -28z m890 17 c28 -12 39 -21 36 -31 -3
-8 -6 -19 -6 -25 0 -6 -9 -8 -21 -5 -19 5 -19 4 -6 -11 14 -15 13 -25 -11 -97
-15 -44 -28 -82 -29 -83 -2 -4 -113 27 -113 31 0 2 67 202 75 225 6 16 26 15
75 -4z m1210 -18 l65 -24 16 -113 c8 -63 14 -117 13 -120 -4 -7 -235 50 -248
62 -8 7 72 219 84 219 3 0 34 -11 70 -24z m1175 -12 c50 -20 122 -49 160 -64
44 -18 69 -33 67 -42 -5 -17 -88 -167 -106 -191 -13 -17 -20 -16 -128 28 -62
25 -128 51 -145 57 -18 6 -33 16 -33 22 0 17 82 226 89 226 3 0 47 -16 96 -36z
m-2267 -9 c29 -9 52 -21 52 -27 0 -6 -17 -62 -37 -124 -41 -125 -34 -120 -112
-88 -38 16 -37 15 -1 122 17 49 26 62 43 63 17 1 18 2 5 6 -10 2 -18 11 -18
18 0 13 10 45 14 45 1 0 26 -7 54 -15z m271 -20 c46 -19 86 -36 88 -38 4 -5
-105 -288 -116 -299 -3 -4 -44 8 -91 27 -100 40 -97 23 -38 213 30 94 47 132
58 132 8 0 53 -16 99 -35z m1479 13 c7 -7 12 -20 12 -30 0 -17 -2 -18 -30 -3
-32 16 -38 30 -17 38 19 8 22 8 35 -5z m-2478 -86 c0 -10 -4 -12 -12 -4 -7 6
-42 20 -78 32 -75 25 -100 37 -100 49 0 4 43 -8 95 -27 60 -23 95 -41 95 -50z
m1284 30 c67 -25 88 -44 69 -63 -7 -7 -39 3 -94 26 -46 20 -94 40 -106 45 -22
9 -30 30 -17 43 4 3 23 -1 43 -9 20 -9 67 -28 105 -42z m-1809 28 c3 -5 1 -10
-4 -10 -6 0 -11 5 -11 10 0 6 2 10 4 10 3 0 8 -4 11 -10z m3017 -48 c6 -7 -3
-54 -36 -176 -21 -74 -22 -76 -54 -76 -27 0 -202 37 -209 44 -2 2 8 34 21 72
20 54 35 78 73 111 78 68 97 75 152 51 25 -10 49 -22 53 -26z m-3450 -61 l92
-88 -32 -29 c-19 -18 -91 -140 -183 -309 -83 -154 -154 -284 -158 -288 -7 -7
-47 24 -194 148 -24 20 -26 27 -16 43 7 12 9 33 5 55 -5 28 -17 44 -51 67 -62
43 -60 67 11 151 48 57 70 73 159 118 95 48 110 60 176 137 40 46 79 84 86 84
8 0 55 -40 105 -89z m492 40 c18 -12 40 -21 47 -21 30 0 166 -96 243 -171 l81
-78 -16 -43 c-19 -49 -31 -51 -102 -19 -23 10 -60 24 -82 31 -22 7 -60 23 -86
36 -49 24 -144 52 -198 58 -19 3 -37 9 -41 15 -3 6 10 60 29 120 l36 108 28
-8 c15 -4 43 -17 61 -28z m1804 -55 c1 -2 -20 -61 -48 -132 -73 -187 -68 -177
-87 -170 -143 55 -203 82 -203 92 0 17 60 167 71 179 5 5 9 16 9 25 0 8 9 34
20 57 l19 42 108 -45 c59 -25 109 -46 111 -48z m-1504 10 c151 -76 143 -64
108 -153 -9 -24 -20 -43 -24 -43 -4 0 -33 31 -64 70 -32 39 -70 74 -86 79 -42
15 -178 101 -178 113 0 7 21 9 54 6 41 -3 87 -21 190 -72z m291 33 c45 -11 70
-30 63 -49 -2 -6 -14 -4 -31 5 -16 8 -46 20 -68 26 -39 12 -53 29 -23 29 8 0
35 -5 59 -11z m2534 -35 c61 -26 111 -51 111 -55 0 -5 -4 -9 -9 -9 -14 0 -144
49 -174 66 -16 9 -38 13 -52 10 -19 -5 -22 -3 -18 14 3 11 11 20 18 20 7 0 63
-21 124 -46z m-1144 -7 c79 -33 100 -46 97 -59 -2 -10 -6 -18 -9 -18 -14 0
-214 83 -219 91 -7 12 4 29 19 29 7 -1 57 -20 112 -43z m-1055 -63 c113 -37
210 -71 216 -75 8 -6 4 -34 -13 -96 -29 -111 -29 -120 6 -321 38 -215 41 -242
33 -242 -4 0 -31 21 -60 46 -41 36 -53 54 -58 85 -5 31 -10 38 -23 34 -13 -4
-20 9 -35 59 -10 35 -24 76 -31 90 -7 14 -23 57 -35 95 -15 47 -30 76 -46 86
-19 12 -24 24 -24 58 0 40 -5 47 -80 122 -53 53 -80 87 -80 102 0 13 5 23 12
23 7 0 105 -30 218 -66z m1742 40 c-2 -11 -12 -39 -23 -63 -17 -40 -21 -43
-48 -38 -15 3 -52 9 -80 13 -62 8 -60 11 41 70 76 45 116 51 110 18z m448 -20
c47 -19 90 -38 97 -40 7 -4 0 -33 -24 -92 -19 -48 -37 -97 -40 -109 -6 -27
-16 -29 -37 -8 -8 8 -19 15 -25 15 -26 0 -161 76 -161 90 0 8 8 43 18 78 13
48 24 67 47 82 17 10 32 19 35 19 3 1 44 -15 90 -35z m-1165 -15 c107 -43 123
-58 93 -91 -7 -7 -13 -17 -13 -23 -1 -25 -61 -165 -71 -165 -10 0 -214 78
-222 85 -6 5 92 235 100 235 4 0 55 -19 113 -41z m278 -26 c62 -16 107 -33
107 -40 0 -12 -38 -115 -45 -122 -2 -2 -54 16 -115 40 -121 47 -115 40 -84
116 8 18 18 33 22 33 4 0 55 -12 115 -27z m1157 -16 c47 -20 99 -42 115 -51
17 -9 36 -16 43 -16 6 0 12 -4 12 -10 0 -14 -20 -12 -54 5 -15 8 -36 15 -45
15 -9 0 -25 6 -36 14 -11 7 -48 24 -82 36 -66 24 -112 59 -63 47 14 -3 63 -21
110 -40z m-2835 -16 l64 -29 -20 -59 c-19 -57 -20 -59 -67 -70 -26 -6 -55 -14
-64 -18 -12 -5 -21 2 -34 26 -18 35 -18 32 27 157 11 28 16 28 94 -7z m-844
-7 c35 -14 67 -29 71 -33 4 -4 -3 -46 -16 -94 -22 -78 -30 -93 -87 -157 -43
-49 -68 -69 -78 -65 -34 13 -161 89 -161 96 0 21 125 237 149 256 33 29 44 29
122 -3z m3663 -23 c6 -4 44 -20 83 -35 40 -15 75 -31 78 -36 4 -7 -90 -188
-125 -240 l-15 -22 -110 77 c-61 42 -112 81 -114 87 -2 6 3 25 11 42 9 17 23
51 31 76 9 25 21 57 26 72 l10 27 57 -19 c31 -11 62 -24 68 -29z m-827 -10
c29 -4 56 -11 59 -14 5 -5 -22 -83 -61 -174 -1 -3 -134 48 -187 71 l-37 16 19
56 c29 83 31 85 98 68 31 -8 81 -18 109 -23z m-1820 -95 c42 -65 48 -81 64
-186 10 -63 22 -131 25 -150 9 -45 92 -160 116 -160 10 0 22 -10 27 -22 16
-39 113 -125 176 -155 62 -29 93 -67 82 -97 -6 -15 -15 -11 -64 27 -32 24 -84
58 -115 76 -32 18 -68 46 -80 63 -28 37 -54 62 -140 133 -38 32 -86 84 -113
125 -26 39 -67 95 -92 125 -51 63 -51 44 9 217 22 63 34 85 44 81 8 -3 35 -37
61 -77z m638 46 c33 -14 61 -26 62 -27 2 -1 -34 -97 -70 -182 -12 -29 -25 -53
-29 -53 -3 0 -28 9 -53 20 l-48 20 5 113 c3 61 9 120 13 130 9 22 31 18 120
-21z m-1453 13 c23 -3 46 -9 51 -14 4 -4 -8 -57 -27 -117 -18 -60 -39 -128
-45 -151 -9 -33 -154 -305 -287 -540 l-24 -42 -43 15 c-23 9 -46 17 -52 18 -5
1 -27 10 -49 19 -21 9 -43 17 -48 17 -6 0 2 21 17 46 22 38 25 50 17 69 -10
21 -4 31 52 92 40 44 83 107 121 178 32 61 85 141 119 180 54 62 64 81 86 158
23 80 27 87 47 82 12 -3 41 -7 65 -10z m2896 -10 c82 -19 80 -12 34 -113 -14
-32 -26 -61 -28 -67 -4 -19 -24 -65 -27 -65 -7 0 -181 75 -199 85 -16 10 -15
17 15 99 l32 88 50 -5 c28 -3 83 -13 123 -22z m-620 -33 c89 -34 93 -37 87
-61 -12 -49 -58 -141 -70 -141 -22 0 -199 78 -203 90 -2 6 3 27 11 48 45 109
48 114 65 107 9 -3 59 -23 110 -43z m-2120 -8 c17 -7 32 -17 32 -22 0 -11
-366 -742 -378 -754 -5 -5 -25 -2 -46 7 l-37 15 25 43 c208 363 257 471 316
695 12 47 13 47 88 16z m2902 -19 c27 -13 51 -29 55 -35 3 -5 14 -10 23 -10 9
0 31 -9 48 -19 l32 -19 -35 -89 c-19 -48 -40 -93 -47 -100 -14 -14 -216 61
-216 82 0 7 11 37 24 66 13 30 31 75 40 102 10 26 20 47 22 47 3 0 27 -11 54
-25z m-1403 -25 c54 -22 99 -46 101 -54 2 -8 -9 -43 -23 -78 -15 -35 -33 -83
-42 -106 -13 -37 -19 -43 -37 -39 -20 5 -198 76 -204 82 -3 3 51 151 74 198
10 20 21 37 25 37 4 0 51 -18 106 -40z m-1340 -21 c43 -17 82 -35 87 -39 4 -5
-45 -106 -110 -226 -98 -180 -128 -246 -172 -378 -30 -89 -55 -162 -57 -164
-2 -2 -125 42 -160 58 -11 5 -29 10 -40 12 -14 3 -19 10 -17 23 7 36 367 745
379 745 6 0 47 -14 90 -31z m183 10 c0 -5 -7 -9 -15 -9 -15 0 -20 12 -9 23 8
8 24 -1 24 -14z m1410 -13 c132 -52 138 -56 133 -77 -3 -10 -8 -19 -12 -19 -6
0 -114 41 -188 71 -30 12 -42 36 -26 52 8 9 -6 12 93 -27z m606 -17 c57 -23
104 -46 104 -51 0 -6 -57 -153 -65 -166 -2 -3 -186 72 -208 84 -12 8 -10 21
16 92 16 45 34 82 39 82 6 0 57 -19 114 -41z m-1866 4 c-1 -10 -7 -29 -14 -42
l-13 -23 -21 30 c-27 36 -27 39 -4 45 37 10 52 7 52 -10z m-77 -57 c20 -25 37
-50 37 -56 0 -6 -16 -61 -36 -123 -19 -61 -56 -177 -80 -257 -60 -190 -61
-192 -82 -186 -9 2 -72 19 -139 36 l-121 32 23 69 c13 38 69 151 123 251 55
101 108 200 118 220 13 28 26 39 53 46 59 16 65 14 104 -32z m1332 -5 c53 -22
102 -44 107 -49 10 -10 -71 -222 -89 -229 -14 -6 -223 77 -223 88 0 7 39 107
80 207 5 12 13 22 18 22 5 0 53 -18 107 -39z m1453 -49 c52 -36 96 -71 99 -78
7 -18 -57 -134 -73 -134 -15 0 -204 78 -217 89 -6 6 13 61 57 164 11 25 21 35
29 31 7 -4 54 -36 105 -72z m-1170 13 c72 -29 102 -45 102 -57 0 -9 -4 -19 -9
-22 -7 -5 -206 68 -219 80 -7 5 10 45 17 42 4 -2 53 -21 109 -43z m572 -4 c52
-21 96 -44 98 -52 4 -25 -55 -164 -70 -161 -22 5 -193 74 -201 81 -10 10 54
171 68 171 6 0 53 -17 105 -39z m-3070 -85 c0 -27 -110 -199 -163 -253 l-60
-62 -43 31 c-24 17 -52 41 -64 53 l-21 22 87 160 87 160 88 -51 c49 -28 89
-55 89 -60z m2438 35 c37 -16 79 -32 94 -36 47 -12 48 -24 9 -125 -58 -148
-55 -143 -99 -124 -20 9 -68 29 -107 45 -38 15 -70 31 -70 36 0 19 90 233 98
233 5 0 39 -13 75 -29z m-668 -37 c63 -25 147 -59 185 -74 39 -15 149 -60 245
-100 96 -39 201 -82 233 -95 l57 -24 15 22 c8 12 21 43 30 67 25 73 69 170 77
170 9 0 449 -178 455 -184 8 -7 -19 -116 -30 -123 -6 -4 -64 -5 -130 -4 -111
2 -121 1 -143 -20 -13 -12 -24 -26 -24 -31 0 -5 -15 -32 -32 -59 -32 -48 -34
-50 -70 -44 -29 5 -37 3 -42 -12 -4 -10 -21 -34 -39 -54 -51 -57 -227 -111
-227 -69 0 4 9 37 20 72 11 34 20 66 20 69 0 10 -138 41 -158 36 -9 -3 -30 -8
-45 -11 -22 -5 -28 -12 -25 -29 2 -18 17 -26 73 -45 78 -25 99 -40 89 -66 -10
-26 -32 -18 -314 111 -30 14 -73 32 -94 39 -22 8 -44 18 -50 23 -6 5 -46 23
-88 41 -43 17 -80 35 -82 38 -2 4 -13 62 -25 129 -24 139 -29 288 -8 280 6 -3
64 -27 127 -53z m-768 -1 c19 -27 59 -83 87 -125 28 -42 72 -94 98 -115 26
-21 86 -77 133 -124 47 -48 93 -89 102 -92 14 -5 16 -11 7 -35 -22 -64 -149
-312 -159 -312 -6 0 -50 22 -98 48 -48 26 -160 77 -249 112 -95 37 -163 70
-163 77 0 8 22 82 50 166 27 83 70 218 95 300 25 81 49 147 53 147 5 0 24 -21
44 -47z m1709 3 c96 -36 139 -58 139 -72 0 -26 -20 -23 -124 18 -79 32 -106
47 -106 60 0 24 15 23 91 -6z m614 -17 c58 -23 105 -45 105 -50 0 -12 -59
-162 -70 -179 -9 -13 -14 -11 -31 13 -11 15 -25 27 -30 27 -25 0 -149 56 -149
68 0 13 62 162 67 162 2 0 50 -19 108 -41z m595 -95 c60 -47 110 -90 110 -96
0 -19 -21 -48 -35 -48 -8 0 -29 7 -47 14 -18 8 -73 32 -123 52 -49 20 -92 38
-93 40 -6 5 60 124 69 124 4 0 58 -39 119 -86z m-4424 -10 c51 -41 98 -82 105
-90 9 -11 5 -27 -21 -77 -18 -34 -38 -67 -44 -74 -8 -9 -38 3 -126 52 -63 36
-116 69 -118 74 -2 5 8 27 21 48 13 21 36 62 51 91 14 28 29 52 32 52 4 0 48
-34 100 -76z m3496 9 c85 -33 98 -41 98 -62 0 -17 -4 -22 -17 -17 -169 65
-203 82 -203 98 0 25 12 23 122 -19z m582 -3 c51 -22 99 -40 105 -40 6 0 11
-3 11 -6 0 -14 -63 -116 -74 -119 -6 -2 -64 -6 -130 -9 -110 -6 -118 -5 -111
11 4 10 24 60 43 111 20 53 41 92 49 92 7 0 55 -18 107 -40z m-359 -86 c43
-15 84 -38 101 -55 15 -16 23 -29 16 -29 -12 0 -202 66 -208 73 -5 5 6 37 13
37 3 0 38 -12 78 -26z m642 -26 c96 -39 132 -58 133 -70 0 -9 -4 -19 -8 -22
-8 -5 -313 32 -320 39 -5 5 47 105 56 105 4 0 66 -24 139 -52z m-4152 -64 l57
-47 -60 -60 -60 -60 -46 33 -45 33 16 31 c33 64 65 116 73 116 5 0 34 -21 65
-46z m4337 -32 c-27 -4 -37 2 -27 17 4 8 13 7 28 -1 l22 -13 -23 -3z m-4242
-53 c0 -5 -10 -27 -22 -49 -16 -27 -31 -40 -52 -44 -16 -3 -32 -4 -34 -1 -7 6
88 105 100 105 4 0 8 -5 8 -11z m3003 -26 c-7 -2 -19 -2 -25 0 -7 3 -2 5 12 5
14 0 19 -2 13 -5z m-3210 -50 l27 -21 -66 -31 c-37 -17 -69 -29 -71 -27 -5 4
33 83 50 104 5 7 14 9 21 4 6 -5 23 -18 39 -29z m1009 -34 c62 -16 116 -34
121 -38 6 -6 -6 -56 -39 -160 -3 -9 -14 -11 -39 -7 -33 7 -234 71 -240 78 -2
2 8 38 22 81 19 60 29 77 44 77 10 0 69 -14 131 -31z m1005 -100 c30 -32 32
-39 38 -140 l7 -107 -42 -96 c-24 -54 -50 -107 -60 -118 l-17 -21 -54 41 c-30
22 -89 59 -131 82 -43 23 -78 46 -78 52 0 6 41 93 90 195 50 101 90 190 90
197 0 7 3 15 6 19 9 8 112 -63 151 -104z m1412 99 c-3 -66 -32 -149 -89 -256
-53 -99 -66 -117 -68 -96 -2 14 7 47 21 73 13 25 41 77 61 116 20 38 41 74 46
79 6 6 10 29 10 53 0 24 5 43 10 43 6 0 10 -6 9 -12z m-3161 -39 c64 -20 102
-37 102 -46 0 -8 -27 -63 -60 -124 -33 -60 -60 -116 -60 -124 0 -7 -3 -20 -6
-29 -5 -14 -10 -13 -42 3 -21 10 -65 28 -98 40 -82 30 -129 79 -160 166 -13
38 -21 72 -18 76 10 17 208 81 229 74 6 -1 56 -18 113 -36z m2146 -133 c83
-43 161 -75 220 -91 l91 -24 90 24 c103 28 109 29 99 14 -15 -25 -22 -78 -10
-84 6 -3 0 -2 -14 1 -14 3 -126 10 -249 16 l-223 10 -72 70 c-39 38 -91 83
-115 101 -56 40 -112 98 -106 108 3 4 40 -12 83 -35 42 -23 135 -73 206 -110z
m-1831 100 c67 -24 136 -48 152 -53 19 -6 30 -16 30 -29 0 -29 -29 -28 -111 5
-42 17 -83 31 -90 31 -14 0 -144 50 -144 55 0 15 15 35 26 35 8 0 69 -20 137
-44z m-38 -68 c61 -22 127 -44 148 -50 20 -6 37 -15 37 -20 0 -16 -62 -128
-71 -128 -5 0 -59 20 -121 44 -62 24 -130 49 -150 55 -21 7 -40 16 -43 21 -3
5 8 37 25 70 24 49 35 60 48 55 9 -4 67 -25 127 -47z m672 3 c175 -69 286
-117 361 -158 48 -25 89 -48 91 -50 2 -1 -1 -14 -7 -28 l-12 -25 -70 35 c-45
23 -84 35 -110 35 -22 0 -93 17 -158 39 -64 21 -132 42 -149 46 -18 3 -34 10
-37 13 -6 11 26 112 35 112 5 0 30 -8 56 -19z m1869 -28 c-11 -11 -19 6 -11
24 8 17 8 17 12 0 3 -10 2 -21 -1 -24z m-2260 9 c5 -5 45 -19 89 -32 124 -35
155 -50 155 -71 0 -26 -9 -24 -134 16 -60 19 -116 35 -126 35 -22 0 -30 19
-18 43 10 19 19 21 34 9z m1436 -68 c80 -69 158 -170 158 -204 0 -7 -29 -62
-63 -124 -35 -61 -78 -137 -96 -168 -18 -32 -36 -60 -41 -63 -22 -14 -190 124
-190 156 0 4 21 52 46 106 55 118 77 215 68 294 -11 102 4 103 118 3z m-1437
-8 c22 -8 78 -27 125 -41 47 -15 89 -30 94 -35 7 -7 -46 -193 -60 -209 -1 -1
-68 36 -148 84 l-145 87 21 41 c31 62 49 87 61 87 6 0 29 -6 52 -14z m-282
-88 c48 -19 92 -39 97 -44 9 -9 -56 -124 -77 -137 -8 -5 -93 27 -255 97 -46
20 -48 39 -14 113 l25 52 68 -24 c37 -13 107 -39 156 -57z m716 22 c68 -22
128 -40 135 -40 6 0 17 -4 25 -9 10 -7 0 -32 -48 -117 -39 -71 -63 -126 -67
-157 -4 -26 -11 -47 -17 -47 -8 0 -243 125 -256 136 -13 12 75 274 93 274 6 0
67 -18 135 -40z m1501 -51 c0 -13 -8 -28 -83 -161 -33 -60 -63 -108 -66 -108
-12 1 -171 254 -171 272 0 4 72 8 160 8 107 0 160 -4 160 -11z m140 -19 c40
-17 96 -41 253 -109 27 -11 47 -24 45 -29 -1 -5 -30 -59 -62 -121 -68 -130
-58 -127 -181 -56 -44 25 -113 59 -155 75 -41 17 -85 35 -98 40 l-23 10 37 68
c86 158 83 153 112 146 15 -3 47 -14 72 -24z m165 -21 c93 -33 114 -37 144
-29 19 5 37 8 39 6 2 -2 -4 -18 -12 -35 l-16 -31 -48 20 c-26 10 -83 35 -127
54 -44 20 -85 36 -91 36 -6 0 -18 8 -25 17 -12 15 -12 16 6 8 11 -4 69 -25
130 -46z m-1502 10 c34 -17 65 -36 68 -41 3 -5 -36 -95 -88 -199 l-93 -190
-28 20 c-15 10 -44 37 -66 59 -38 40 -39 42 -32 94 5 39 24 82 72 165 59 102
73 120 97 122 4 1 36 -13 70 -30z m-733 -79 c73 -44 138 -81 143 -83 16 -5
-27 -197 -44 -197 -6 0 -28 13 -48 28 -20 15 -96 63 -168 107 -128 76 -132 79
-118 99 8 12 29 45 46 74 17 28 36 52 43 52 6 0 72 -36 146 -80z m-436 -10
c66 -27 123 -53 127 -57 6 -6 -116 -252 -134 -270 -7 -6 -217 108 -217 118 0
5 15 40 34 77 18 37 36 85 40 107 10 55 16 75 24 75 4 0 61 -22 126 -50z
m1373 -24 c104 -61 163 -106 163 -123 0 -6 -25 -60 -56 -120 -96 -185 -185
-353 -189 -353 -2 0 -15 21 -30 48 -15 26 -64 84 -109 130 l-81 82 98 195 c53
107 101 195 105 195 4 0 49 -24 99 -54z m754 -79 l66 -101 -24 -52 c-21 -46
-22 -58 -13 -98 9 -40 7 -52 -11 -87 -11 -23 -26 -39 -33 -36 -7 3 -47 28 -89
55 -42 28 -97 58 -122 68 -25 9 -45 21 -45 26 0 18 183 328 194 328 6 -1 41
-47 77 -103z m-1657 -160 c23 -18 42 -32 44 -33 2 -1 -28 -48 -67 -104 -38
-56 -72 -107 -74 -113 -3 -11 -307 135 -344 165 -10 8 0 35 44 117 31 58 65
118 75 133 l18 26 132 -80 c73 -44 150 -94 172 -111z m416 23 c0 -14 -49 -171
-56 -179 -2 -2 -39 6 -81 19 -88 26 -191 93 -175 113 6 7 18 50 27 97 9 47 19
88 22 93 7 12 263 -126 263 -143z m1496 85 c99 -41 263 -132 270 -149 5 -13
-114 -235 -151 -280 -20 -25 -26 -28 -39 -16 -36 29 -112 160 -147 252 -21 54
-47 114 -59 133 -21 34 -21 35 -4 65 10 16 24 30 32 30 7 0 51 -16 98 -35z
m-633 -150 c27 -16 51 -34 54 -41 4 -12 -36 -87 -174 -326 l-44 -77 -53 18
c-28 10 -71 28 -95 41 -41 21 -43 23 -38 58 7 39 35 98 146 306 l74 139 41
-45 c23 -25 63 -58 89 -73z m493 20 c32 -56 29 -94 -17 -178 -31 -57 -42 -65
-69 -47 -13 8 -11 17 11 59 24 45 25 55 16 96 -9 37 -7 52 6 80 9 19 19 35 21
35 3 0 17 -20 32 -45z m-2371 -11 c50 -25 94 -50 98 -54 7 -6 -190 -388 -213
-414 -5 -4 -44 11 -87 34 -133 70 -131 39 -15 275 56 113 107 205 114 205 7 0
54 -21 103 -46z m1191 -91 c74 -70 134 -130 134 -134 0 -3 -9 -17 -20 -31
l-19 -25 -137 69 c-75 37 -143 68 -150 68 -8 0 -14 6 -14 13 0 23 53 167 63
167 5 0 69 -57 143 -127z m1705 26 c57 -36 61 -17 -48 -192 -41 -65 -76 -132
-80 -148 -3 -16 -9 -29 -13 -29 -7 0 -75 52 -104 80 -4 5 16 50 46 102 30 51
70 121 89 156 18 34 40 62 48 62 8 0 36 -14 62 -31z m-873 -19 c49 -19 194
-109 206 -128 8 -13 -5 -25 -100 -87 -87 -56 -94 -64 -144 -150 -72 -121 -63
-114 -115 -104 -33 6 -57 20 -90 51 l-44 43 28 45 c15 25 63 108 106 185 68
122 94 165 99 165 0 0 25 -9 54 -20z m-1721 -71 c87 -45 162 -85 166 -89 5 -4
-21 -53 -56 -108 -36 -55 -88 -142 -115 -193 -28 -51 -54 -95 -59 -96 -12 -4
-294 160 -305 177 -7 11 17 65 92 203 56 103 106 187 110 187 5 0 80 -37 167
-81z m2144 -16 c11 -27 37 -84 58 -128 l38 -80 -30 -45 c-41 -63 -122 -201
-175 -295 -24 -44 -46 -82 -48 -84 -4 -5 -52 33 -123 97 l-55 48 31 55 c16 30
67 122 112 204 141 257 152 275 162 275 6 0 19 -21 30 -47z m-1236 -100 c102
-54 185 -101 185 -106 0 -5 -45 -97 -101 -203 l-100 -194 -31 17 c-16 10 -38
35 -49 55 -16 31 -39 47 -144 103 -69 37 -125 68 -125 70 0 2 12 36 26 77 14
40 38 111 53 158 38 119 47 133 77 126 13 -4 107 -50 209 -103z m1084 28 c11
-7 -6 -46 -85 -190 -54 -99 -104 -188 -111 -197 -11 -15 -17 -14 -61 14 -26
16 -58 33 -70 36 -12 4 -22 10 -22 14 1 4 25 47 55 97 50 84 59 94 157 161
109 76 115 79 137 65z m-903 -89 c-3 -3 -63 24 -74 33 -1 1 3 14 9 29 l12 26
28 -42 c16 -23 27 -44 25 -46z m1789 8 c24 -17 47 -34 50 -39 8 -13 27 -272
21 -278 -4 -5 -256 118 -275 133 -5 4 38 64 72 99 16 17 36 44 44 60 17 33 33
55 40 55 2 0 24 -14 48 -30z"/>
<path d="M4135 4330 c10 -11 20 -20 23 -20 3 0 -3 9 -13 20 -10 11 -20 20 -23
20 -3 0 3 -9 13 -20z"/>
<path d="M2790 3820 c-14 -10 -21 -22 -17 -26 4 -4 20 4 35 19 31 31 19 36
-18 7z"/>
<path d="M4211 4194 c0 -11 3 -14 6 -6 3 7 2 16 -1 19 -3 4 -6 -2 -5 -13z"/>
<path d="M4222 4130 c0 -14 2 -19 5 -12 2 6 2 18 0 25 -3 6 -5 1 -5 -13z"/>
<path d="M4141 3714 c0 -11 3 -14 6 -6 3 7 2 16 -1 19 -3 4 -6 -2 -5 -13z"/>
<path d="M4121 3644 c0 -11 3 -14 6 -6 3 7 2 16 -1 19 -3 4 -6 -2 -5 -13z"/>
<path d="M3802 2970 c0 -14 2 -19 5 -12 2 6 2 18 0 25 -3 6 -5 1 -5 -13z"/>
<path d="M3932 2685 c0 -16 2 -22 5 -12 2 9 2 23 0 30 -3 6 -5 -1 -5 -18z"/>
<path d="M2430 2706 c0 -2 9 -6 20 -9 11 -3 18 -1 14 4 -5 9 -34 13 -34 5z"/>
<path d="M2908 2573 c7 -3 16 -2 19 1 4 3 -2 6 -13 5 -11 0 -14 -3 -6 -6z"/>
<path d="M3898 2243 c7 -3 16 -2 19 1 4 3 -2 6 -13 5 -11 0 -14 -3 -6 -6z"/>
<path d="M4331 4968 c0 -18 3 -26 6 -18 3 8 10 23 15 33 6 12 5 17 -7 17 -10
0 -15 -10 -14 -32z"/>
<path d="M4930 158 c-36 -56 -73 -114 -83 -130 -15 -23 -16 -28 -4 -28 19 0
159 216 155 241 -2 13 -23 -13 -68 -83z"/>
</g>
</svg>
